<?xml version="1.0" standalone="no"?>
<!DOCTYPE svg PUBLIC "-//W3C//DTD SVG 20010904//EN"
 "http://www.w3.org/TR/2001/REC-SVG-20010904/DTD/svg10.dtd">
<svg version="1.0" xmlns="http://www.w3.org/2000/svg"
 width="300.000000pt" height="300.000000pt" viewBox="0 0 300.000000 300.000000"
 preserveAspectRatio="xMidYMid meet">
<metadata>
Created by potrace 1.10, written by Peter Selinger 2001-2011
</metadata>
<g transform="translate(0.000000,300.000000) scale(0.100000,-0.100000)"
fill="#4369c5" stroke="none">
<path d="M0 2784 c0 -8 10 -14 23 -14 17 0 93 -70 286 -265 246 -248 321 -315
238 -213 -19 24 -46 62 -61 86 -14 23 -31 42 -38 42 -7 0 -6 -6 4 -17 44 -52
22 -39 -49 27 -44 41 -79 81 -77 87 2 7 0 12 -4 10 -14 -4 -114 92 -110 105 3
7 -5 21 -16 31 -31 27 -2 10 101 -61 51 -34 98 -72 104 -85 l11 -22 -21 22
c-22 23 -105 83 -115 83 -17 0 -2 -18 29 -34 43 -24 90 -65 98 -88 4 -10 11
-18 17 -18 5 0 10 -7 10 -15 0 -8 5 -15 10 -15 7 0 7 6 0 20 -22 41 -2 18 46
-52 26 -40 56 -82 65 -93 28 -34 55 -80 42 -72 -6 4 -14 3 -18 -3 -4 -6 5 -10
19 -10 14 0 26 -4 26 -9 0 -5 -59 -107 -131 -226 -72 -119 -129 -219 -126
-221 5 -5 47 49 47 60 0 8 52 89 62 96 3 3 18 28 32 56 39 78 91 159 103 161
6 1 10 -8 8 -22 -1 -13 1 -22 5 -20 4 3 11 -16 15 -41 9 -63 26 -104 20 -49
l-5 40 10 -33 c7 -21 7 -45 1 -67 -6 -21 -6 -37 0 -41 5 -3 9 7 10 23 1 34 38
-111 38 -147 -1 -14 -8 3 -16 38 -8 35 -17 61 -20 58 -3 -3 0 -25 6 -49 7 -24
11 -52 9 -63 -2 -12 2 -18 11 -16 10 2 12 -8 8 -45 -3 -26 -9 -90 -13 -140 -6
-83 -14 -108 -27 -85 -2 4 -3 2 -1 -4 1 -6 -3 -17 -9 -23 -8 -8 -8 -11 0 -11
6 0 14 6 16 13 4 7 6 8 6 1 1 -14 -38 -104 -45 -104 -2 0 -1 12 2 27 7 25 6
26 -8 13 -8 -8 -18 -29 -22 -45 -4 -17 -15 -38 -23 -47 -9 -10 -13 -18 -9 -18
3 0 0 -13 -9 -30 -9 -16 -12 -30 -8 -30 5 0 21 28 37 61 15 33 30 58 32 56 2
-2 -15 -44 -38 -94 -42 -91 -42 -91 -78 -89 -19 1 -42 6 -50 11 -8 5 -22 10
-30 12 -30 4 -135 37 -144 45 -6 4 -18 8 -28 8 -9 0 -33 7 -51 16 -27 13 -33
21 -29 38 2 11 -15 -6 -38 -39 -24 -33 -51 -66 -61 -73 -11 -7 -19 -18 -19
-23 0 -5 13 4 30 21 35 36 40 37 40 8 0 -34 13 -12 17 29 2 21 5 39 7 40 5 6
366 -122 366 -129 0 -4 -39 -87 -86 -185 -47 -98 -97 -203 -111 -233 -14 -30
-59 -124 -99 -209 -41 -84 -77 -164 -80 -177 -14 -57 -19 -23 -16 119 2 84 1
149 -3 146 -3 -4 -6 -60 -7 -125 0 -65 -5 -124 -10 -130 -5 -7 -4 -21 2 -35 9
-20 4 -49 -28 -154 -22 -72 -38 -132 -36 -134 11 -12 25 24 62 150 22 75 45
145 51 155 12 21 265 555 434 914 l105 225 11 115 c7 63 14 135 17 160 3 31
-9 113 -43 270 l-47 225 -121 170 -120 170 -173 116 c-170 114 -222 141 -222
113z m430 -305 c0 -6 -4 -7 -10 -4 -5 3 -10 11 -10 16 0 6 5 7 10 4 6 -3 10
-11 10 -16z m207 -361 c-3 -7 -5 -2 -5 12 0 14 2 19 5 13 2 -7 2 -19 0 -25z
m15 -43 c3 -13 1 -22 -3 -19 -9 5 -13 44 -5 44 2 0 6 -11 8 -25z"/>
<path d="M220 2633 c0 -10 40 -36 46 -30 3 2 -7 12 -21 21 -14 9 -25 13 -25 9z"/>
<path d="M0 2580 c0 -5 5 -10 11 -10 5 0 7 5 4 10 -3 6 -8 10 -11 10 -2 0 -4
-4 -4 -10z"/>
<path d="M60 2540 c0 -5 5 -10 11 -10 5 0 7 5 4 10 -3 6 -8 10 -11 10 -2 0 -4
-4 -4 -10z"/>
<path d="M135 2495 c17 -13 34 -24 39 -25 6 0 -5 11 -24 25 -44 32 -54 32 -15
0z"/>
<path d="M232 2434 c10 -10 20 -16 22 -13 3 3 -5 11 -17 18 -21 13 -21 12 -5
-5z"/>
<path d="M1517 2442 c-4 -5 19 -12 54 -16 37 -3 72 -14 90 -27 16 -11 33 -17
39 -14 5 3 18 1 27 -5 16 -10 15 -10 -4 -5 -18 5 -16 0 12 -30 19 -19 39 -35
45 -35 6 0 -2 11 -17 25 l-28 24 34 -12 c19 -7 50 -27 69 -46 31 -31 33 -36
18 -46 -17 -13 -22 -35 -7 -35 5 0 12 7 15 16 4 9 9 14 13 11 3 -4 1 -12 -5
-19 -6 -7 -9 -27 -8 -45 1 -17 -2 -29 -7 -26 -5 3 -7 14 -4 24 3 11 1 17 -4
13 -5 -3 -9 0 -9 6 0 7 -6 5 -15 -4 -19 -18 -20 -32 -1 -17 11 9 15 6 20 -14
4 -14 10 -25 14 -25 4 0 6 -20 4 -44 -2 -24 2 -54 9 -67 34 -61 23 -333 -17
-428 -8 -18 -14 -44 -14 -58 0 -28 -17 -22 -30 11 -8 18 -9 16 -10 -14 -1 -28
-3 -31 -9 -15 -9 22 6 75 20 75 5 0 9 10 8 23 0 12 -3 16 -6 9 -2 -6 -9 -10
-14 -7 -5 4 -6 -2 -2 -11 4 -11 3 -15 -5 -10 -12 7 -12 2 -15 -80 -2 -51 -2
-51 -33 -49 -28 2 -30 -1 -26 -24 l5 -26 -22 19 c-18 17 -21 17 -15 3 5 -15 0
-19 -22 -16 -4 0 -10 -4 -14 -11 -4 -6 -23 -13 -44 -17 -32 -5 -36 -4 -31 13
6 17 5 17 -7 -1 -13 -20 -38 -31 -38 -17 0 4 -10 9 -22 10 -21 3 -52 7 -70 11
-4 0 -5 10 -3 21 5 25 -10 27 -20 3 -8 -22 27 -53 61 -53 12 0 25 -4 28 -9 3
-5 19 -7 36 -5 19 2 29 0 25 -6 -3 -6 -2 -10 4 -10 5 0 13 4 16 10 3 5 16 8
28 6 12 -2 34 0 50 5 22 6 27 4 27 -9 0 -14 2 -15 9 -2 6 8 7 18 5 22 -3 4 1
8 8 8 7 0 39 25 72 55 32 30 62 52 67 49 5 -3 9 -26 9 -51 0 -26 3 -44 6 -40
12 11 36 -23 31 -43 -7 -27 2 -25 12 2 6 16 0 40 -22 87 -27 58 -29 67 -17 95
7 17 17 56 22 86 17 96 18 101 29 95 5 -4 19 15 31 42 25 56 31 169 10 182 -9
5 -10 15 -4 31 11 30 -30 235 -53 260 -8 9 -15 21 -15 27 0 6 -21 31 -47 56
-33 32 -70 55 -127 78 -82 32 -189 49 -199 31z m393 -254 c0 -10 -5 -18 -10
-18 -6 0 -1 -10 10 -22 11 -12 18 -28 15 -36 -3 -7 -5 -18 -5 -23 0 -5 -5 -9
-11 -9 -7 0 -9 11 -6 30 4 16 3 31 -2 34 -4 3 -9 -15 -9 -40 -2 -35 3 -50 21
-68 15 -15 21 -30 17 -41 -5 -14 -11 -9 -33 24 -26 40 -35 85 -19 95 5 3 7 19
4 37 -3 20 0 34 9 40 10 6 10 9 2 9 -7 0 -10 7 -6 16 5 13 7 13 14 2 5 -7 9
-21 9 -30z m30 -142 c0 -3 -4 -8 -10 -11 -5 -3 -10 -1 -10 4 0 6 5 11 10 11 6
0 10 -2 10 -4z m20 -156 c0 -60 -28 -156 -42 -142 -5 5 -6 33 -2 63 6 45 9 50
15 29 6 -21 7 -22 8 -4 1 11 -4 25 -10 31 -7 7 -8 28 -4 56 6 40 9 44 21 32 8
-8 14 -34 14 -65z"/>
<path d="M1465 2418 c-11 -6 -27 -15 -35 -20 -8 -4 -25 -12 -37 -18 -62 -26
-153 -155 -153 -215 0 -14 -9 -47 -20 -75 -18 -46 -18 -54 3 -51 4 0 7 -17 7
-38 0 -22 3 -47 7 -57 4 -11 3 -15 -4 -11 -17 11 -25 -58 -12 -105 14 -53 33
-92 58 -115 10 -10 18 -30 17 -45 -1 -14 2 -24 7 -21 5 3 8 -8 7 -23 -4 -56
-1 -67 17 -60 15 6 16 5 1 -11 -9 -10 -30 -46 -47 -81 -19 -37 -41 -66 -54
-71 -85 -34 -234 -100 -299 -132 -43 -22 -83 -39 -89 -39 -6 0 -37 -19 -70
-41 -55 -39 -104 -105 -167 -226 -28 -51 -124 -396 -117 -415 3 -8 1 -32 -5
-53 l-10 -40 4 45 4 45 -13 -40 c-7 -22 -14 -48 -14 -58 -1 -10 -5 -16 -10
-12 -19 11 -33 -37 -34 -115 -1 -43 -5 -76 -9 -73 -5 2 -8 -11 -8 -29 0 -18
-9 -66 -20 -106 -24 -87 -26 -135 -4 -84 8 18 17 53 20 77 3 24 15 74 28 112
22 65 24 68 55 68 19 0 30 -4 27 -11 -2 -6 1 -11 7 -11 35 1 49 -4 44 -16 -3
-7 3 -13 13 -13 10 0 16 5 13 10 -4 6 1 6 13 2 10 -4 25 -9 32 -10 8 -1 17 -8
22 -15 5 -9 10 -10 14 -2 10 16 -68 53 -83 38 -8 -8 -11 -7 -11 5 0 14 -43 31
-103 40 -17 3 -17 4 2 24 11 12 17 25 13 28 -11 12 -14 96 -3 96 6 0 11 -9 11
-20 0 -20 14 -27 24 -11 3 4 8 28 10 52 12 111 60 352 87 435 32 99 132 254
163 254 8 0 8 -3 0 -8 -55 -37 -129 -197 -104 -227 6 -8 8 -20 4 -26 -4 -8 -3
-9 4 -5 7 4 10 17 7 29 -8 34 9 82 28 79 11 -2 15 2 11 13 -9 23 3 59 30 88
l25 27 4 -23 c2 -12 5 -4 6 19 1 49 34 86 69 78 15 -4 24 -1 28 10 7 18 58 49
67 40 2 -3 19 4 37 14 17 11 40 17 51 15 11 -3 27 2 37 11 29 30 86 60 107 57
17 -1 17 0 5 8 -12 8 -8 11 18 11 31 0 31 -1 15 -18 -10 -10 -30 -17 -45 -16
-16 1 -28 -1 -28 -5 0 -15 -46 -61 -60 -61 -24 -1 -63 -36 -57 -51 4 -10 6 -8
6 5 1 13 6 17 21 13 14 -3 20 0 20 10 0 10 6 14 20 10 11 -3 18 -2 15 3 -3 4
2 13 10 20 12 10 15 10 15 0 0 -9 4 -9 17 1 14 12 16 12 9 -1 -4 -9 -1 -8 7 3
8 9 18 17 23 17 4 0 19 12 32 28 22 26 23 26 16 3 -4 -17 -3 -22 7 -18 8 2 12
11 10 18 -2 8 -5 25 -8 39 -3 24 -3 25 6 3 6 -13 13 -23 16 -23 4 0 4 4 0 10
-5 8 10 45 25 60 3 3 5 11 6 18 4 48 3 47 20 24 8 -12 13 -32 10 -45 -3 -12
-3 -16 0 -9 10 22 23 13 30 -23 3 -19 11 -35 16 -35 15 0 38 -27 30 -35 -4 -5
-1 -5 6 -1 6 4 12 2 12 -3 0 -6 -4 -11 -10 -11 -5 0 -7 -7 -3 -16 4 -12 8 -11
17 8 7 13 8 25 4 26 -4 2 -8 10 -8 18 0 8 -5 14 -10 14 -6 0 -13 8 -17 18 -3
9 -20 36 -36 59 -24 35 -28 48 -23 77 4 20 11 36 17 36 6 0 8 -4 5 -9 -7 -11
18 -33 27 -24 4 3 7 11 7 17 0 6 -5 4 -10 -4 -8 -12 -10 -10 -11 10 -1 14 -1
31 0 39 2 8 -2 10 -10 6 -8 -6 -10 -1 -7 18 3 15 2 24 -3 22 -6 -4 -16 22 -24
65 0 3 -9 38 -19 79 -16 62 -18 97 -13 208 4 85 11 145 20 163 20 39 4 54 -34
34 -25 -13 -28 -13 -23 1 4 8 10 15 16 15 5 0 6 5 2 11 -3 6 11 29 32 51 22
23 31 38 22 35 -39 -14 -15 11 27 29 25 10 45 22 45 27 0 5 8 3 17 -4 9 -8 14
-9 10 -2 -4 6 -1 13 5 16 7 3 2 5 -12 4 -14 0 -31 -5 -39 -11 -11 -9 -13 -8
-9 4 2 8 24 19 49 24 37 7 41 10 24 17 -21 9 73 2 110 -8 11 -3 17 -2 13 2 -4
5 -25 12 -45 16 l-38 8 43 -2 c52 -3 54 6 3 21 -45 14 -40 14 -66 0z m-175
-275 c0 -5 -4 -14 -9 -21 -7 -11 -9 -11 -14 1 -3 8 -3 18 0 21 9 8 23 7 23 -1z
m-13 -101 c0 -31 -1 -49 -4 -39 -2 9 -8 15 -12 13 -11 -7 -11 37 0 50 7 8 7
14 -1 19 -14 9 -13 25 3 19 8 -3 13 -25 14 -62z m-20 -64 c-3 -8 -6 -5 -6 6
-1 11 2 17 5 13 3 -3 4 -12 1 -19z m3 -116 c0 -20 -4 -31 -10 -27 -18 11 -10
-22 9 -39 11 -10 17 -24 14 -32 -4 -10 -11 -3 -24 21 -20 36 -23 72 -12 113 8
32 23 9 23 -36z m-215 -562 c-3 -5 -11 -10 -16 -10 -6 0 -7 5 -4 10 3 6 11 10
16 10 6 0 7 -4 4 -10z m-548 -862 c-3 -8 -6 -5 -6 6 -1 11 2 17 5 13 3 -3 4
-12 1 -19z m-48 -61 c0 -18 -9 -50 -19 -72 -16 -35 -19 -37 -19 -15 -1 14 6
36 15 48 11 15 13 32 9 53 -5 22 -4 29 4 25 6 -4 11 -22 10 -39z"/>
<path d="M277 2409 c7 -7 15 -10 18 -7 3 3 -2 9 -12 12 -14 6 -15 5 -6 -5z"/>
<path d="M1580 2401 c0 -5 8 -8 17 -7 10 2 24 -3 31 -11 7 -7 19 -13 25 -13 7
0 1 9 -13 20 -26 20 -60 27 -60 11z"/>
<path d="M1598 2373 c6 -2 9 -10 5 -16 -4 -6 0 -8 10 -4 10 4 17 1 17 -5 0 -6
3 -8 7 -5 3 4 12 2 20 -4 10 -9 13 -8 13 1 0 7 7 10 16 6 15 -6 15 -4 3 10 -8
10 -15 12 -17 5 -2 -7 -13 -6 -32 4 -16 8 -35 15 -42 14 -10 0 -10 -2 0 -6z"/>
<path d="M362 2354 c10 -10 20 -16 22 -13 3 3 -5 11 -17 18 -21 13 -21 12 -5
-5z"/>
<path d="M1495 2360 c-4 -6 -15 -10 -26 -10 -10 0 -19 -7 -19 -15 0 -11 5 -13
18 -6 9 5 28 13 41 18 20 8 22 11 8 16 -9 3 -19 2 -22 -3z"/>
<path d="M38 2333 c7 -3 16 -2 19 1 4 3 -2 6 -13 5 -11 0 -14 -3 -6 -6z"/>
<path d="M1545 2330 c-24 -6 -20 -7 21 -6 29 0 50 4 47 9 -5 8 -27 8 -68 -3z"/>
<path d="M90 2320 c14 -4 34 -8 45 -8 16 0 15 2 -5 8 -14 4 -34 8 -45 8 -16 0
-15 -2 5 -8z"/>
<path d="M1715 2320 c3 -5 8 -10 11 -10 2 0 4 5 4 10 0 6 -5 10 -11 10 -5 0
-7 -4 -4 -10z"/>
<path d="M1657 2313 c-12 -12 -7 -23 10 -23 9 0 14 -3 10 -6 -3 -4 -14 -3 -24
1 -28 12 -64 15 -58 4 3 -5 -1 -6 -9 -3 -9 3 -16 1 -16 -5 0 -6 -8 -11 -18
-11 -10 0 -19 -7 -19 -15 0 -8 6 -15 12 -15 7 0 18 7 25 15 8 10 31 15 65 15
33 0 55 5 57 12 3 9 11 9 34 0 16 -6 43 -17 59 -23 l30 -12 -25 -7 c-25 -8
-25 -8 -2 -9 33 -1 75 32 59 48 -6 6 -18 11 -26 11 -14 0 -14 1 -1 10 13 8 13
10 -2 10 -9 0 -20 -4 -23 -10 -3 -5 -2 -10 2 -10 5 0 18 -7 29 -15 17 -13 16
-14 -14 -4 -17 6 -35 15 -38 20 -3 5 -9 7 -14 4 -4 -3 -24 2 -44 10 -39 17
-50 18 -59 8z"/>
<path d="M1435 2294 c17 -13 110 -8 135 7 9 5 -18 7 -68 6 -64 -2 -79 -5 -67
-13z"/>
<path d="M267 2289 c7 -7 15 -10 18 -7 3 3 -2 9 -12 12 -14 6 -15 5 -6 -5z"/>
<path d="M1370 2290 c-13 -8 -13 -11 -1 -22 11 -10 12 -10 7 0 -5 7 1 16 16
21 13 6 16 10 8 10 -8 0 -22 -4 -30 -9z"/>
<path d="M328 2273 c6 -2 18 -2 25 0 6 3 1 5 -13 5 -14 0 -19 -2 -12 -5z"/>
<path d="M1472 2266 c-34 -20 -40 -29 -12 -22 24 7 24 6 -7 -23 -17 -16 -29
-32 -26 -35 4 -3 -1 -6 -11 -6 -9 0 -14 4 -11 10 4 6 -2 7 -18 1 -16 -6 -28
-6 -35 1 -6 6 -12 6 -16 0 -10 -17 31 -45 58 -38 27 7 90 56 82 64 -3 3 2 11
12 18 14 11 14 13 2 14 -9 0 -5 6 10 15 14 8 18 14 10 14 -8 -1 -25 -7 -38
-13z"/>
<path d="M390 2260 c34 -11 60 -11 35 0 -11 5 -29 8 -40 8 -16 0 -15 -2 5 -8z"/>
<path d="M508 2238 c6 -6 18 -8 28 -6 14 3 12 5 -9 10 -19 3 -25 2 -19 -4z"/>
<path d="M1308 2218 c-10 -10 -14 -18 -9 -18 10 0 36 29 30 34 -2 1 -12 -6
-21 -16z"/>
<path d="M1401 2231 c-8 -5 -21 -7 -30 -3 -9 3 -13 2 -9 -2 10 -12 58 -15 51
-3 -4 6 0 8 11 4 10 -4 15 -3 11 3 -8 12 -16 12 -34 1z"/>
<path d="M0 2111 c1 -18 319 -343 332 -339 4 2 -69 80 -162 174 -94 93 -170
168 -170 165z"/>
<path d="M1746 2043 c-4 -4 -24 -6 -45 -4 -27 2 -40 -2 -44 -13 -9 -22 6 -28
60 -21 33 5 59 2 86 -9 48 -21 48 -4 0 29 -41 27 -46 29 -57 18z"/>
<path d="M1384 2020 c-21 -8 -57 -50 -50 -57 2 -2 16 3 32 12 16 8 48 15 71
15 45 0 123 -26 123 -41 0 -4 -20 0 -45 11 -24 10 -47 15 -50 11 -3 -5 3 -12
13 -16 16 -6 16 -7 -2 -17 -14 -8 -21 -8 -24 0 -2 7 -14 7 -35 1 -29 -8 -30
-7 -13 6 11 8 15 15 8 15 -6 0 -25 -13 -42 -30 -33 -32 -20 -42 23 -18 24 14
97 19 97 7 0 -4 -12 -17 -27 -28 -21 -15 -24 -20 -11 -21 9 0 24 -3 34 -7 13
-5 15 -3 9 7 -6 10 -4 12 7 7 34 -12 95 100 68 126 -8 9 -10 8 -5 -4 4 -10 2
-20 -3 -23 -16 -10 -44 5 -38 20 3 8 -1 14 -10 14 -8 0 -12 -4 -9 -10 3 -6 -1
-7 -9 -4 -9 3 -13 10 -10 15 3 5 -3 9 -13 10 -10 0 -29 2 -43 4 -14 2 -35 0
-46 -5z m156 -105 c0 -8 -4 -15 -10 -15 -5 0 -10 7 -10 15 0 8 5 15 10 15 6 0
10 -7 10 -15z"/>
<path d="M1603 2022 c-10 -7 -10 -12 1 -27 17 -24 46 -14 39 14 -6 22 -19 26
-40 13z"/>
<path d="M1675 1966 c-24 -10 -30 -19 -30 -43 0 -28 2 -30 43 -32 23 0 42 3
42 9 0 5 -9 10 -20 10 -11 0 -20 6 -20 14 0 21 27 27 35 8 6 -16 7 -16 20 1 7
10 16 14 19 9 10 -17 44 -21 50 -6 7 17 -43 44 -81 44 -15 -1 -41 -7 -58 -14z
m111 -12 c26 -14 26 -15 4 -8 -14 4 -41 7 -62 8 -20 1 -34 4 -31 9 8 13 60 8
89 -9z m-111 -24 c3 -5 1 -10 -4 -10 -6 0 -11 5 -11 10 0 6 2 10 4 10 3 0 8
-4 11 -10z"/>
<path d="M1571 1913 c-5 -10 -7 -33 -5 -52 3 -27 -2 -38 -26 -61 -33 -31 -36
-42 -16 -59 11 -9 12 -6 8 14 -5 29 22 57 46 48 10 -5 13 8 10 61 -2 36 -4 66
-5 66 -1 0 -7 -8 -12 -17z"/>
<path d="M1395 1890 c-3 -5 3 -10 14 -10 12 0 21 5 21 10 0 6 -6 10 -14 10 -8
0 -18 -4 -21 -10z"/>
<path d="M1650 1801 c0 -6 4 -13 10 -16 6 -3 7 1 4 9 -7 18 -14 21 -14 7z"/>
<path d="M1674 1768 c-4 -7 -3 -8 5 -4 6 4 14 0 17 -8 3 -9 12 -16 20 -16 8 0
11 6 8 15 -4 8 -10 12 -15 9 -5 -3 -9 0 -9 5 0 15 -17 14 -26 -1z"/>
<path d="M1820 1765 c0 -8 2 -15 4 -15 2 0 6 7 10 15 3 8 1 15 -4 15 -6 0 -10
-7 -10 -15z"/>
<path d="M1635 1750 c-3 -5 1 -10 9 -10 9 0 16 5 16 10 0 6 -4 10 -9 10 -6 0
-13 -4 -16 -10z"/>
<path d="M1477 1734 c4 -12 3 -15 -5 -10 -7 4 -12 2 -12 -4 0 -6 8 -10 18 -8
20 4 23 29 4 36 -8 2 -10 -2 -5 -14z"/>
<path d="M1559 1736 c9 -10 8 -16 -4 -26 -12 -10 -15 -10 -15 0 0 8 -2 11 -5
8 -10 -10 15 -58 30 -58 8 0 15 4 15 10 0 5 -7 7 -15 4 -10 -4 -15 0 -15 11 0
9 4 14 9 11 5 -3 11 1 15 9 3 8 13 15 22 15 10 0 14 -5 10 -15 -7 -19 32 -55
51 -48 13 5 12 8 -3 16 -27 14 -35 30 -21 39 8 5 6 8 -6 8 -10 0 -16 4 -13 9
6 8 -25 21 -53 21 -10 0 -11 -3 -2 -14z"/>
<path d="M336 1715 c-9 -26 -7 -32 5 -12 6 10 9 21 6 23 -2 3 -7 -2 -11 -11z"/>
<path d="M687 1723 c-4 -3 -7 -20 -7 -36 0 -39 11 -28 14 12 2 34 2 34 -7 24z"/>
<path d="M148 1713 c7 -3 16 -2 19 1 4 3 -2 6 -13 5 -11 0 -14 -3 -6 -6z"/>
<path d="M1655 1707 c-4 -10 -5 -21 -1 -24 10 -10 18 4 13 24 -4 17 -4 17 -12
0z"/>
<path d="M80 1699 c0 -11 21 -11 39 0 9 6 5 9 -13 9 -14 0 -26 -4 -26 -9z"/>
<path d="M321 1664 c0 -11 3 -14 6 -6 3 7 2 16 -1 19 -3 4 -6 -2 -5 -13z"/>
<path d="M1686 1665 c7 -16 9 -16 -101 -20 -38 -2 -64 -1 -57 2 6 3 9 9 6 15
-4 6 -12 1 -20 -13 -10 -19 -13 -20 -14 -6 0 20 -30 24 -30 3 0 -8 -6 -16 -12
-19 -7 -2 4 -4 24 -4 23 1 45 -6 58 -18 11 -10 23 -15 27 -12 3 4 1 7 -6 7 -7
0 -9 5 -5 12 4 7 3 8 -4 4 -7 -4 -12 -3 -12 2 0 12 162 24 172 14 14 -14 28
-72 17 -72 -6 0 -3 -7 6 -16 9 -9 13 -24 10 -33 -5 -13 -4 -14 7 -3 9 9 10 17
2 30 -13 20 -7 45 8 36 6 -4 8 1 4 14 -4 11 -9 31 -11 43 -3 13 -12 30 -20 38
-15 15 -15 14 -9 -4 8 -19 7 -19 -19 -2 -21 14 -25 14 -21 2z"/>
<path d="M52 1641 c-21 -16 -22 -17 -3 -18 11 -1 22 5 25 14 9 23 4 24 -22 4z"/>
<path d="M1437 1649 c7 -7 15 -10 18 -7 3 3 -2 9 -12 12 -14 6 -15 5 -6 -5z"/>
<path d="M670 1641 c0 -6 5 -13 10 -16 6 -3 10 1 10 9 0 9 -4 16 -10 16 -5 0
-10 -4 -10 -9z"/>
<path d="M1390 1626 c0 -8 4 -17 9 -20 5 -4 7 3 4 14 -6 23 -13 26 -13 6z"/>
<path d="M45 1599 c-4 -6 -5 -12 -2 -15 2 -3 7 2 10 11 7 17 1 20 -8 4z"/>
<path d="M1430 1575 c0 -8 4 -15 10 -15 5 0 7 7 4 15 -4 8 -8 15 -10 15 -2 0
-4 -7 -4 -15z"/>
<path d="M1530 1576 c0 -2 7 -7 16 -10 8 -3 12 -2 9 4 -6 10 -25 14 -25 6z"/>
<path d="M1602 1549 c-1 -17 3 -37 9 -45 6 -7 7 -19 3 -25 -4 -8 -3 -9 4 -5
13 8 16 36 5 36 -5 0 -9 11 -9 24 -1 15 3 23 14 22 8 0 17 5 19 12 3 6 0 12
-7 12 -6 0 -8 -4 -5 -10 3 -5 1 -10 -4 -10 -6 0 -11 5 -11 10 0 25 -16 7 -18
-21z"/>
<path d="M1475 1550 c10 -11 20 -20 23 -20 3 0 -3 9 -13 20 -10 11 -20 20 -23
20 -3 0 3 -9 13 -20z"/>
<path d="M1579 1557 c-1 -4 -2 -10 -3 -14 -1 -5 -4 -13 -8 -18 -4 -6 -3 -17 2
-24 5 -10 10 -4 15 18 4 18 4 35 1 38 -3 4 -7 3 -7 0z"/>
<path d="M1410 1527 c0 -10 8 -17 18 -17 9 0 13 4 7 8 -5 4 -13 11 -17 16 -5
5 -8 2 -8 -7z"/>
<path d="M1461 1529 c1 -20 17 -57 18 -41 1 7 6 10 11 7 18 -11 10 11 -10 30
-15 14 -20 15 -19 4z"/>
<path d="M1687 1528 c-4 -13 20 -37 38 -38 6 0 3 5 -5 10 -11 7 -12 10 -2 10
10 0 10 3 -2 15 -18 18 -23 19 -29 3z"/>
<path d="M1347 1491 c3 -12 11 -21 18 -21 7 0 18 -7 25 -15 7 -9 15 -14 17
-12 7 7 -9 37 -20 37 -6 0 -18 7 -28 16 -16 15 -17 14 -12 -5z"/>
<path d="M1525 1491 c-4 -13 -4 -25 -1 -28 3 -4 6 -1 6 5 0 7 5 12 11 12 5 0
7 -4 4 -10 -3 -6 1 -7 10 -3 12 4 13 8 5 13 -7 4 -16 13 -20 20 -6 9 -10 6
-15 -9z"/>
<path d="M1654 1475 c-3 -8 -4 -20 -1 -27 3 -7 6 -3 6 9 1 12 7 24 14 26 9 4
9 6 -1 6 -7 1 -15 -6 -18 -14z"/>
<path d="M1815 1451 c-38 -55 -88 -94 -188 -146 -46 -23 -81 -47 -79 -54 1 -7
-14 1 -35 18 -21 17 -45 31 -55 31 -19 0 -33 -33 -22 -51 4 -7 7 -26 7 -43 -1
-17 1 -25 4 -18 3 6 8 10 13 7 9 -6 6 42 -3 52 -3 3 1 12 9 20 13 14 17 13 29
-3 8 -11 14 -23 14 -29 0 -5 -6 -1 -14 9 -8 11 -18 17 -21 13 -3 -3 3 -13 15
-23 11 -10 18 -21 15 -26 -3 -4 -3 -8 1 -8 3 0 10 10 16 23 8 19 9 18 3 -8 -3
-16 -9 -32 -12 -35 -4 -3 -8 -16 -10 -29 -3 -32 -11 -39 -23 -21 -7 11 -8 6
-3 -15 l6 -30 -19 30 c-11 17 -20 34 -21 38 -1 4 -11 17 -24 28 -20 17 -21 18
-3 12 18 -6 18 -5 6 10 -8 10 -11 20 -7 24 3 3 6 0 6 -7 0 -7 3 -11 6 -7 3 3
-6 21 -20 40 -15 19 -35 52 -46 73 l-19 39 6 -35 c6 -32 5 -34 -10 -21 -11 9
-17 10 -17 2 0 -6 5 -12 10 -12 6 -1 15 -2 22 -3 16 -2 50 -66 43 -83 -4 -13
-8 -13 -22 -2 -15 13 -15 12 -4 -10 7 -13 21 -25 31 -28 12 -3 16 -11 12 -25
-3 -13 -1 -19 5 -15 31 19 53 -82 50 -234 -2 -88 1 -115 10 -112 9 3 12 -6 11
-31 -1 -37 15 -66 38 -66 10 0 8 6 -6 20 -15 15 -20 34 -21 73 0 40 -3 47 -10
32 -6 -13 -8 27 -6 116 3 126 6 141 31 192 16 30 25 60 22 65 -8 14 93 117
122 124 12 4 20 2 16 -3 -3 -5 -1 -9 5 -9 5 0 13 5 16 10 5 8 12 7 23 -2 13
-11 15 -10 9 5 -4 10 -2 17 6 17 7 0 18 10 26 23 8 12 32 43 54 69 21 26 37
52 35 58 -2 7 -17 -7 -33 -29z m-75 -105 c0 -2 -7 -7 -16 -10 -8 -3 -12 -2 -9
4 6 10 25 14 25 6z"/>
<path d="M1586 1465 c4 -8 8 -15 10 -15 2 0 4 7 4 15 0 8 -4 15 -10 15 -5 0
-7 -7 -4 -15z"/>
<path d="M1495 1460 c3 -5 8 -10 11 -10 2 0 4 5 4 10 0 6 -5 10 -11 10 -5 0
-7 -4 -4 -10z"/>
<path d="M1611 1447 c-1 -10 -5 -15 -11 -12 -5 3 -10 -1 -10 -9 0 -17 9 -20
26 -8 7 4 8 15 3 27 -7 18 -8 18 -8 2z"/>
<path d="M1530 1446 c0 -2 7 -9 15 -16 13 -11 14 -10 9 4 -5 14 -24 23 -24 12z"/>
<path d="M1814 1375 c-28 -24 -28 -25 -9 -42 15 -15 17 -15 6 -1 -14 19 2 34
32 30 18 -3 21 5 9 26 -6 9 -16 6 -38 -13z"/>
<path d="M1298 1364 c3 -17 7 -22 12 -13 9 13 2 39 -10 39 -4 0 -5 -12 -2 -26z"/>
<path d="M1922 1379 c3 -8 16 -13 29 -12 21 2 22 1 6 -8 -9 -5 -21 -8 -26 -5
-5 3 -14 -1 -21 -10 -10 -11 -10 -18 -2 -26 9 -9 12 -7 12 8 0 13 7 19 25 20
14 1 25 -2 25 -7 0 -5 14 -16 31 -25 24 -12 33 -13 39 -4 7 12 20 7 80 -29 8
-5 32 -17 54 -26 25 -11 35 -20 28 -27 -6 -6 -23 -1 -48 15 -22 13 -55 32 -74
41 l-35 17 25 -20 c14 -11 36 -26 50 -33 14 -7 27 -15 30 -18 8 -8 114 -59
130 -62 55 -11 127 -148 146 -278 4 -25 14 -53 22 -62 10 -12 11 -18 4 -18
-16 0 -15 -44 3 -110 18 -66 17 -63 5 -55 -5 3 -10 -1 -10 -9 0 -9 7 -16 16
-16 8 0 12 -5 9 -10 -4 -6 -11 -8 -16 -5 -5 4 -7 -9 -4 -31 5 -41 14 -58 16
-28 1 15 3 13 9 -6 14 -45 11 114 -5 218 -19 127 -50 234 -85 300 -16 30 -22
48 -14 41 21 -17 70 -125 88 -194 8 -33 22 -105 30 -160 8 -55 18 -118 21
-140 4 -22 6 -47 7 -55 0 -8 4 -49 9 -90 16 -151 18 -179 10 -184 -12 -8 -3
-78 19 -156 10 -36 22 -78 25 -95 4 -17 9 -25 12 -19 2 6 -6 50 -17 99 -20 84
-19 116 0 85 7 -10 10 2 10 40 0 31 -4 60 -9 65 -5 6 -19 93 -30 195 -26 216
-45 329 -73 419 -41 133 -96 230 -121 214 -6 -3 -7 -2 -4 3 3 6 3 15 -1 20
-20 30 -153 117 -262 171 -139 70 -175 83 -168 62z m111 -61 c-5 -9 -8 -9 -11
0 -2 7 -9 9 -14 6 -7 -5 -8 -2 -3 6 6 9 4 12 -7 8 -8 -4 -15 0 -15 7 0 11 6
11 29 -1 17 -9 26 -19 21 -26z m227 -123 c12 -15 9 -14 -23 1 -20 9 -34 21
-31 26 6 10 36 -5 54 -27z m210 -462 c0 -32 -5 -28 -14 10 -4 19 -3 26 4 22 5
-3 10 -18 10 -32z m105 -475 c-10 -31 -25 -47 -25 -26 0 24 11 48 22 48 5 0 6
-10 3 -22z"/>
<path d="M1502 1328 c19 -28 37 -34 34 -12 -2 10 -13 21 -26 26 -22 8 -22 7
-8 -14z"/>
<path d="M181 1324 c0 -11 3 -14 6 -6 3 7 2 16 -1 19 -3 4 -6 -2 -5 -13z"/>
<path d="M1750 1307 c-14 -18 -17 -26 -7 -18 19 15 23 1 5 -17 -7 -7 -10 -12
-7 -12 3 0 18 13 33 28 22 24 24 31 13 40 -11 9 -19 5 -37 -21z"/>
<path d="M1864 1318 l-19 -23 23 19 c21 18 27 26 19 26 -2 0 -12 -10 -23 -22z"/>
<path d="M1879 1299 c-6 -12 -8 -35 -5 -52 6 -29 5 -30 -8 -12 -15 20 -15 20
-13 -2 1 -13 7 -23 14 -23 21 0 15 -31 -7 -37 -11 -3 -20 -13 -19 -22 0 -10 2
-11 6 -3 5 13 24 17 22 5 -4 -22 2 -36 10 -27 10 10 26 194 17 194 -3 0 -10
-10 -17 -21z"/>
<path d="M1234 1295 c-34 -14 -61 -44 -30 -32 14 5 17 3 13 -8 -4 -8 -2 -17 3
-20 6 -4 10 -1 10 4 0 6 5 11 11 11 5 0 7 -4 4 -10 -3 -5 1 -10 10 -10 10 0
15 7 13 18 -2 10 -11 16 -21 14 -9 -2 -17 2 -17 8 0 5 9 10 19 10 11 0 22 4
26 9 10 17 -9 20 -41 6z"/>
<path d="M1943 1255 c-1 -47 2 -64 17 -77 32 -30 41 -20 19 22 -12 22 -19 49
-16 60 3 11 1 20 -3 20 -5 0 -10 8 -12 18 -2 9 -4 -10 -5 -43z"/>
<path d="M1640 1296 c0 -2 -7 -19 -15 -38 -14 -34 -13 -37 21 -89 20 -30 32
-45 28 -34 -14 39 -16 73 -5 94 14 25 4 71 -15 71 -8 0 -14 -2 -14 -4z"/>
<path d="M1987 1283 c-4 -3 -7 -11 -7 -17 0 -6 5 -5 12 2 6 6 9 14 7 17 -3 3
-9 2 -12 -2z"/>
<path d="M1293 1234 c-2 -19 2 -34 7 -34 6 0 10 -9 10 -21 0 -11 5 -29 10 -39
7 -13 7 -21 0 -25 -5 -3 -10 -14 -9 -23 0 -14 2 -13 9 3 8 18 9 18 9 2 1 -16
3 -17 16 -3 16 15 21 41 7 32 -11 -6 -47 99 -38 112 3 5 0 14 -7 20 -9 8 -13
2 -14 -24z"/>
<path d="M2025 1260 c-3 -6 1 -7 9 -4 12 5 16 -1 16 -24 0 -16 7 -35 16 -43 8
-7 13 -21 11 -31 -3 -10 -2 -16 3 -13 4 3 10 16 12 30 4 19 1 25 -13 25 -14 0
-19 7 -19 25 0 19 4 23 18 18 16 -6 16 -6 0 10 -18 19 -44 22 -53 7z"/>
<path d="M1126 1243 c-4 -9 -5 -17 -4 -18 6 -5 48 15 48 23 0 15 -38 11 -44
-5z"/>
<path d="M1700 1245 c-14 -16 -3 -20 19 -6 8 5 9 11 3 15 -5 3 -15 -1 -22 -9z"/>
<path d="M1793 1232 c-11 -15 -23 -39 -27 -54 -3 -16 -11 -28 -16 -28 -5 0 -7
8 -3 18 8 23 -45 -25 -59 -53 -5 -11 2 -6 15 10 22 25 28 28 39 16 9 -10 9
-12 1 -7 -8 4 -13 1 -13 -8 0 -20 2 -20 30 4 12 11 24 31 26 45 1 14 10 37 19
51 23 35 13 40 -12 6z"/>
<path d="M953 1240 c-13 -5 -23 -13 -23 -16 0 -4 3 -4 7 -1 3 4 12 2 18 -3 9
-8 14 -5 18 10 3 11 4 20 4 19 -1 0 -12 -4 -24 -9z"/>
<path d="M1819 1223 c-13 -16 -12 -17 4 -4 16 13 21 21 13 21 -2 0 -10 -8 -17
-17z"/>
<path d="M1321 1225 c0 -12 69 -88 75 -83 2 2 -14 24 -36 49 -22 24 -39 40
-39 34z"/>
<path d="M1585 1220 c-3 -5 -1 -10 4 -10 6 0 11 5 11 10 0 6 -2 10 -4 10 -3 0
-8 -4 -11 -10z"/>
<path d="M1137 1200 c-19 -22 -37 -137 -20 -127 6 4 8 17 6 31 -3 15 2 31 15
44 11 11 20 31 20 46 0 31 1 31 -21 6z"/>
<path d="M536 1194 c-8 -21 -8 -39 1 -30 8 7 15 46 9 46 -2 0 -7 -7 -10 -16z"/>
<path d="M1681 1196 c-13 -15 -7 -36 9 -36 12 0 19 25 11 39 -6 9 -11 8 -20
-3z"/>
<path d="M2150 1200 c0 -5 5 -10 11 -10 5 0 7 5 4 10 -3 6 -8 10 -11 10 -2 0
-4 -4 -4 -10z"/>
<path d="M1217 1186 c-4 -10 -5 -21 -2 -24 9 -9 17 6 13 25 -3 17 -4 17 -11
-1z"/>
<path d="M1247 1185 c-4 -8 -2 -17 3 -20 6 -4 10 3 10 14 0 25 -6 27 -13 6z"/>
<path d="M1850 1190 c0 -5 5 -10 10 -10 6 0 10 5 10 10 0 6 -4 10 -10 10 -5 0
-10 -4 -10 -10z"/>
<path d="M938 1183 c-19 -5 -33 -43 -25 -65 3 -7 6 -3 6 10 1 15 7 22 21 22
13 0 20 7 20 20 0 11 -1 19 -2 19 -2 -1 -11 -3 -20 -6z"/>
<path d="M2040 1180 c0 -5 5 -10 11 -10 5 0 7 5 4 10 -3 6 -8 10 -11 10 -2 0
-4 -4 -4 -10z"/>
<path d="M842 1163 c-7 -10 -10 -12 -7 -5 3 6 2 12 -4 12 -12 0 -26 -48 -17
-57 3 -4 6 1 6 10 0 10 8 17 20 17 13 0 20 7 20 20 0 24 -2 25 -18 3z"/>
<path d="M1045 1171 c3 -5 -3 -12 -12 -14 -16 -4 -16 -5 1 -6 13 -1 17 -6 13
-21 -3 -11 -2 -18 3 -15 4 3 10 18 12 35 3 21 0 30 -9 30 -8 0 -12 -4 -8 -9z"/>
<path d="M1555 1169 c-4 -6 -5 -12 -2 -15 2 -3 7 2 10 11 7 17 1 20 -8 4z"/>
<path d="M2150 1165 c0 -8 5 -15 11 -15 5 0 7 6 3 13 -6 10 -4 10 7 0 18 -18
30 -16 23 2 -4 8 -15 15 -25 15 -10 0 -19 -7 -19 -15z"/>
<path d="M1465 1160 c3 -5 8 -10 11 -10 2 0 4 5 4 10 0 6 -5 10 -11 10 -5 0
-7 -4 -4 -10z"/>
<path d="M983 1153 c3 -5 0 -27 -8 -49 -8 -21 -14 -31 -15 -21 0 10 -4 16 -10
12 -5 -3 -6 -13 -3 -21 5 -13 -12 -59 -27 -74 -12 -12 -50 -90 -50 -102 1 -7
6 -3 13 10 7 12 15 20 18 17 3 -3 18 21 33 52 15 32 35 71 43 86 21 39 26 84
12 93 -7 4 -9 3 -6 -3z"/>
<path d="M1600 1133 c-21 -47 -29 -82 -19 -88 5 -4 9 1 9 10 0 9 5 13 10 10 6
-3 10 -2 10 4 0 5 -6 12 -12 15 -10 3 -8 9 4 19 10 8 15 17 11 20 -3 4 0 13 7
22 7 8 8 15 3 15 -5 0 -16 -12 -23 -27z"/>
<path d="M2257 1153 c-13 -12 -7 -31 8 -29 22 3 27 12 12 24 -8 7 -17 9 -20 5z"/>
<path d="M1211 1118 c-1 -33 2 -38 22 -38 16 0 23 6 23 20 0 11 -6 20 -14 20
-7 0 -10 -4 -7 -10 3 -5 2 -10 -4 -10 -5 0 -12 12 -14 28 -3 22 -4 20 -6 -10z"/>
<path d="M35 1130 c-3 -5 -1 -10 4 -10 6 0 11 5 11 10 0 6 -2 10 -4 10 -3 0
-8 -4 -11 -10z"/>
<path d="M1930 1123 c0 -13 8 -19 28 -20 20 -1 22 0 9 6 -10 4 -18 11 -17 16
1 5 -3 11 -9 13 -6 2 -11 -5 -11 -15z"/>
<path d="M2142 1115 c0 -16 2 -22 5 -12 2 9 2 23 0 30 -3 6 -5 -1 -5 -18z"/>
<path d="M2181 1124 c0 -11 3 -14 6 -6 3 7 2 16 -1 19 -3 4 -6 -2 -5 -13z"/>
<path d="M131 945 c-2 -104 -4 -228 -6 -274 -2 -53 1 -78 6 -68 5 9 8 132 6
274 -2 253 -2 254 -6 68z"/>
<path d="M1800 1119 c0 -5 5 -7 10 -4 6 3 10 8 10 11 0 2 -4 4 -10 4 -5 0 -10
-5 -10 -11z"/>
<path d="M842 1090 c-1 -17 2 -30 6 -30 5 0 8 11 8 25 -2 35 -11 39 -14 5z"/>
<path d="M1137 1113 c-3 -5 -1 -17 4 -28 7 -17 8 -17 8 8 1 27 -4 34 -12 20z"/>
<path d="M1527 1113 c-11 -10 -8 -20 7 -26 10 -4 12 0 9 14 -6 21 -7 22 -16
12z"/>
<path d="M1829 1101 c-1 -12 -1 -28 -1 -36 0 -74 3 -85 39 -120 20 -19 39 -33
41 -30 3 3 -3 12 -14 20 -10 8 -15 15 -10 15 5 0 4 6 -2 13 -6 7 -13 32 -14
55 -2 23 -7 42 -12 42 -5 0 -2 8 5 17 10 11 10 14 2 9 -8 -4 -13 -2 -13 8 0
23 -20 30 -21 7z"/>
<path d="M2030 1088 c0 -23 3 -29 9 -19 8 12 4 51 -5 51 -2 0 -4 -15 -4 -32z"/>
<path d="M2300 1074 c-23 -53 -23 -54 -10 -54 6 0 9 3 8 8 -1 7 4 23 23 70 17
42 -2 22 -21 -24z"/>
<path d="M2063 1102 c-8 -5 -9 -13 -3 -22 6 -8 10 -13 11 -10 0 3 2 13 4 23 4
19 4 19 -12 9z"/>
<path d="M910 1074 c0 -14 4 -23 9 -20 5 3 7 15 4 26 -7 28 -13 25 -13 -6z"/>
<path d="M1015 1080 c0 -8 7 -14 14 -12 9 2 12 -4 8 -18 -3 -11 -1 -20 4 -20
5 0 9 8 10 18 0 9 2 25 4 35 2 10 -3 17 -11 17 -9 0 -13 -4 -9 -9 3 -5 1 -12
-4 -15 -5 -4 -11 -1 -14 6 -2 7 -3 6 -2 -2z"/>
<path d="M1643 1092 c-13 -2 -23 -9 -23 -17 0 -18 40 -27 47 -10 8 22 0 30
-24 27z"/>
<path d="M1724 1066 c-9 -52 0 -64 12 -16 6 22 8 43 3 46 -4 2 -11 -11 -15
-30z"/>
<path d="M2165 1090 c3 -5 -4 -11 -17 -11 -20 -1 -21 -2 -3 -6 11 -3 23 -10
26 -15 4 -5 9 2 11 16 4 18 1 26 -9 26 -8 0 -11 -4 -8 -10z"/>
<path d="M741 1045 c-1 -24 4 -55 10 -67 7 -12 13 -53 15 -89 1 -37 8 -77 14
-89 7 -13 23 -64 37 -114 13 -50 28 -95 33 -100 15 -15 12 5 -11 70 -16 48
-19 74 -15 139 8 118 9 205 3 249 -10 65 -17 53 -17 -27 0 -41 -3 -83 -7 -93
-4 -12 -3 -15 6 -10 10 6 11 -3 6 -40 -8 -63 -13 -76 -24 -70 -5 3 -8 34 -7
68 1 35 -4 80 -11 102 -7 21 -13 56 -13 77 0 54 -16 49 -19 -6z"/>
<path d="M780 1049 c0 -19 4 -41 9 -48 6 -10 8 1 4 30 -7 55 -13 63 -13 18z"/>
<path d="M2236 1049 c-8 -42 -8 -49 3 -49 6 0 8 9 6 20 -2 11 0 20 6 20 5 0 9
9 9 20 0 31 -17 23 -24 -11z"/>
<path d="M880 1060 c0 -5 5 -10 11 -10 5 0 7 5 4 10 -3 6 -8 10 -11 10 -2 0
-4 -4 -4 -10z"/>
<path d="M1230 1055 c0 -8 2 -15 4 -15 2 0 6 7 10 15 3 8 1 15 -4 15 -6 0 -10
-7 -10 -15z"/>
<path d="M1421 1054 c0 -11 3 -14 6 -6 3 7 2 16 -1 19 -3 4 -6 -2 -5 -13z"/>
<path d="M1523 1051 c1 -14 7 -26 14 -28 7 -3 11 4 10 16 0 11 -4 18 -8 15 -4
-2 -10 2 -13 8 -3 7 -4 2 -3 -11z"/>
<path d="M1755 1060 c-3 -5 -1 -10 4 -10 6 0 11 5 11 10 0 6 -2 10 -4 10 -3 0
-8 -4 -11 -10z"/>
<path d="M1885 1043 c3 -30 10 -54 27 -90 6 -12 8 -29 4 -39 -11 -28 5 -114
21 -114 8 0 11 5 7 12 -4 6 -8 40 -9 75 -2 58 -1 63 19 64 20 0 20 0 -1 9 -13
5 -23 17 -24 27 -1 12 -3 10 -9 -7 l-8 -25 -2 25 c-3 42 -10 74 -19 83 -5 5
-8 -4 -6 -20z"/>
<path d="M1930 1055 c0 -8 6 -15 14 -15 8 0 17 -6 19 -12 3 -7 6 -3 6 8 1 12
-6 25 -15 28 -22 9 -24 8 -24 -9z"/>
<path d="M2339 1063 c0 -5 -3 -38 -5 -75 -5 -71 -27 -210 -40 -243 -5 -14 -4
-17 3 -10 22 21 42 114 49 223 4 61 4 112 0 112 -3 0 -6 -3 -7 -7z"/>
<path d="M2050 1050 c0 -5 5 -10 11 -10 5 0 7 5 4 10 -3 6 -8 10 -11 10 -2 0
-4 -4 -4 -10z"/>
<path d="M2126 1006 c-7 -44 -5 -60 5 -66 7 -5 14 -16 15 -25 5 -34 16 -29 13
7 -2 20 0 40 4 44 4 4 7 18 7 30 0 16 -4 22 -14 18 -10 -4 -16 3 -18 23 -3 20
-6 11 -12 -31z"/>
<path d="M1212 1005 c0 -27 2 -42 5 -32 2 9 14 17 26 17 18 0 19 2 7 10 -11 7
-11 10 -2 10 7 0 10 5 7 10 -10 16 -25 12 -26 -7 -1 -10 -5 -4 -9 12 -6 26 -8
23 -8 -20z"/>
<path d="M2022 1031 c2 -8 14 -21 26 -29 20 -13 22 -13 22 3 0 9 -6 15 -12 12
-7 -2 -19 3 -26 12 -10 12 -12 12 -10 2z"/>
<path d="M1100 1016 c0 -4 9 -6 21 -3 17 5 18 3 7 -11 -10 -12 -10 -14 0 -8
13 8 15 -6 6 -41 -4 -13 -11 -23 -16 -23 -5 0 -7 4 -4 8 2 4 1 14 -5 22 -6 10
-9 -4 -9 -44 0 -58 6 -71 13 -27 2 12 9 26 16 30 6 4 14 30 18 58 5 50 5 51
-21 50 -14 -1 -26 -6 -26 -11z"/>
<path d="M1311 948 c1 -46 3 -75 6 -65 2 9 11 17 19 17 8 0 14 2 14 4 0 2 3
11 6 20 3 9 1 16 -5 16 -6 0 -11 -7 -11 -15 0 -34 -15 -12 -18 25 -2 34 0 40
18 40 13 0 20 7 20 20 0 15 -7 20 -25 20 -25 0 -25 -1 -24 -82z m34 62 c-3 -5
-10 -10 -16 -10 -5 0 -9 5 -9 10 0 6 7 10 16 10 8 0 12 -4 9 -10z"/>
<path d="M1420 1010 c0 -11 2 -20 5 -20 2 0 9 9 15 20 9 16 8 20 -5 20 -8 0
-15 -9 -15 -20z"/>
<path d="M1569 1004 c-1 -17 -3 -22 -6 -11 -2 9 -8 17 -13 17 -4 0 -6 -9 -3
-20 3 -11 9 -20 14 -20 5 0 7 -48 6 -107 -3 -80 0 -111 10 -121 11 -11 13 -11
13 2 0 9 -4 16 -9 16 -4 0 -6 11 -3 25 2 15 9 22 16 18 6 -3 6 0 -1 8 -7 7
-13 23 -13 36 0 13 6 23 13 23 8 0 7 4 -3 10 -13 8 -13 10 0 10 11 0 11 3 2
12 -15 15 -16 68 -1 68 8 0 7 6 -2 17 -10 11 -10 14 -1 9 17 -10 15 9 -3 24
-13 11 -15 8 -16 -16z"/>
<path d="M1000 1000 c0 -11 4 -20 10 -20 5 0 7 7 4 15 -4 8 -1 15 4 15 6 0 12
-8 14 -17 3 -15 5 -14 10 5 5 18 2 22 -18 22 -17 0 -24 -6 -24 -20z"/>
<path d="M1500 983 c0 -21 -2 -63 -5 -93 -3 -37 -2 -47 3 -30 10 29 16 160 8
160 -4 0 -6 -17 -6 -37z"/>
<path d="M2367 1013 c-2 -5 -4 -44 -3 -87 2 -59 -3 -96 -20 -145 -24 -74 -75
-180 -107 -227 -12 -18 -27 -40 -34 -50 -10 -16 5 45 24 96 7 18 10 29 17 55
2 11 11 33 20 49 10 20 12 34 5 42 -10 12 13 69 24 58 3 -3 3 3 0 15 -8 31
-20 25 -27 -14 -5 -22 -13 -35 -23 -35 -11 0 -14 7 -11 23 3 14 0 24 -7 24
-19 0 -5 -55 16 -60 17 -4 18 -9 9 -34 -6 -15 -17 -32 -24 -38 -7 -5 -18 -46
-26 -90 -7 -44 -16 -84 -21 -89 -4 -5 -5 -14 -3 -21 3 -7 -4 -30 -15 -51 -25
-46 -27 -66 -6 -58 18 7 19 -1 19 -213 1 -97 5 -152 11 -150 6 1 10 23 10 50
0 26 4 47 8 47 5 0 4 7 -3 15 -16 19 -11 19 29 -1 18 -9 35 -13 38 -10 4 3 1
6 -6 6 -7 0 -9 5 -5 12 4 6 3 8 -3 5 -6 -4 -22 2 -35 13 -19 15 -24 26 -20 50
5 35 25 35 32 -1 3 -13 11 -25 19 -27 11 -2 12 0 4 10 -18 22 -20 52 -3 65 13
11 13 12 -2 13 -10 0 -18 -4 -18 -10 0 -5 -8 -10 -18 -10 -16 0 -18 7 -16 47
1 27 2 49 3 51 1 1 10 -2 21 -8 14 -7 20 -7 20 0 0 5 -6 10 -14 10 -8 0 -13 8
-11 18 2 9 4 23 4 31 1 10 4 11 14 2 11 -8 13 -5 9 19 -3 24 0 30 19 34 48 11
58 11 57 1 0 -5 -4 -9 -9 -7 -5 1 -9 -2 -9 -8 0 -25 37 -3 42 25 3 17 -2 20
-31 17 -61 -6 -78 -18 -97 -69 -23 -64 -35 -75 -27 -27 3 21 39 104 79 184 87
172 130 315 118 390 -4 25 -6 51 -5 58 2 13 -5 16 -12 5z"/>
<path d="M1638 993 c6 -2 10 -9 6 -14 -3 -5 0 -9 5 -9 6 0 11 7 11 15 0 8 -8
15 -17 14 -11 0 -13 -3 -5 -6z"/>
<path d="M1720 974 c0 -30 8 -31 21 -1 l10 22 -5 -22 c-3 -15 1 -23 10 -23 14
0 20 39 7 41 -5 0 -16 2 -25 4 -13 2 -18 -3 -18 -21z"/>
<path d="M2000 959 c12 -22 31 -44 43 -48 44 -17 171 -171 154 -187 -2 -3 -15
7 -28 21 -24 26 -78 60 -84 53 -2 -2 7 -13 20 -24 13 -12 27 -19 30 -16 9 10
5 -8 -7 -31 -7 -12 -17 -26 -23 -30 -6 -5 -2 -6 8 -3 10 3 24 6 30 6 9 0 9 2
0 8 -7 4 -9 13 -4 21 13 20 53 -8 45 -31 -3 -10 -1 -18 5 -18 13 0 24 55 15
82 -17 55 -69 120 -120 153 -30 19 -54 40 -54 45 0 6 -4 8 -10 5 -5 -3 -10 0
-10 8 0 8 -7 17 -15 21 -12 4 -11 -3 5 -35z"/>
<path d="M712 954 c-6 -22 -9 -48 -7 -59 2 -11 4 -23 4 -27 1 -5 6 -8 12 -8 8
0 10 13 6 37 -4 20 -3 42 2 47 5 6 5 19 2 30 -6 15 -9 11 -19 -20z"/>
<path d="M1940 980 c0 -5 7 -7 15 -4 8 4 15 8 15 10 0 2 -7 4 -15 4 -8 0 -15
-4 -15 -10z"/>
<path d="M2223 976 c4 -9 2 -16 -3 -16 -12 0 -4 -35 13 -61 14 -19 15 -20 20
-2 3 10 8 34 11 53 4 26 4 30 -3 15 -9 -19 -12 -18 -15 7 0 6 -7 13 -15 16
-10 3 -12 0 -8 -12z m27 -53 c0 -22 -2 -25 -10 -13 -13 20 -13 40 0 40 6 0 10
-12 10 -27z"/>
<path d="M2308 970 c-4 -14 -8 -34 -8 -45 1 -19 1 -19 11 -2 6 10 9 30 7 45
l-3 27 -7 -25z"/>
<path d="M979 950 c-1 -19 -2 -41 -2 -47 1 -12 -11 -17 -29 -14 -5 0 -8 -2 -9
-6 0 -5 -2 -16 -4 -25 -5 -25 11 -23 18 2 3 14 10 18 21 14 9 -4 16 -3 15 2
-5 28 2 74 11 69 6 -3 10 1 10 10 0 9 -4 14 -9 11 -5 -4 -12 0 -14 6 -3 7 -6
-3 -8 -22z"/>
<path d="M1351 964 c0 -11 3 -14 6 -6 3 7 2 16 -1 19 -3 4 -6 -2 -5 -13z"/>
<path d="M1610 958 c0 -9 4 -19 10 -23 5 -3 7 -11 5 -18 -3 -7 4 -23 15 -37
l20 -25 -1 45 c0 34 -2 40 -9 25 -6 -14 -9 -15 -10 -5 0 8 -7 24 -15 34 -13
17 -15 17 -15 4z"/>
<path d="M2050 949 c0 -5 5 -7 10 -4 6 3 10 8 10 11 0 2 -4 4 -10 4 -5 0 -10
-5 -10 -11z"/>
<path d="M1028 915 c-6 -30 -3 -43 8 -33 3 4 4 19 2 35 l-3 28 -7 -30z"/>
<path d="M1205 930 c-3 -5 -1 -10 4 -10 6 0 11 5 11 10 0 6 -2 10 -4 10 -3 0
-8 -4 -11 -10z"/>
<path d="M1235 930 c-3 -5 1 -10 10 -10 9 0 13 5 10 10 -3 6 -8 10 -10 10 -2
0 -7 -4 -10 -10z"/>
<path d="M1416 933 c-3 -3 -6 -16 -5 -27 0 -15 2 -17 6 -6 3 8 10 18 16 21 6
4 6 9 -1 12 -5 4 -12 4 -16 0z"/>
<path d="M1831 924 c0 -11 3 -14 6 -6 3 7 2 16 -1 19 -3 4 -6 -2 -5 -13z"/>
<path d="M1958 885 c2 -25 7 -45 11 -45 3 0 5 20 3 45 -2 25 -7 45 -11 45 -3
0 -5 -20 -3 -45z"/>
<path d="M1200 899 c0 -5 11 -8 25 -7 14 1 25 5 25 9 0 4 -11 7 -25 7 -14 0
-25 -4 -25 -9z"/>
<path d="M912 880 c0 -14 2 -19 5 -12 2 6 2 18 0 25 -3 6 -5 1 -5 -13z"/>
<path d="M1132 875 c0 -16 2 -22 5 -12 2 9 2 23 0 30 -3 6 -5 -1 -5 -18z"/>
<path d="M1679 892 c11 -8 11 -10 0 -14 -10 -3 -9 -6 3 -10 11 -5 15 -2 14 10
-2 9 -9 18 -17 20 -12 3 -12 2 0 -6z"/>
<path d="M1749 894 c6 -3 7 -12 4 -20 -3 -8 -1 -14 5 -14 14 0 8 33 -7 36 -6
1 -7 0 -2 -2z"/>
<path d="M1820 868 c0 -36 4 -35 14 5 4 16 2 27 -4 27 -5 0 -10 -14 -10 -32z"/>
<path d="M2201 873 c0 -25 1 -26 9 -8 12 27 12 35 0 35 -5 0 -10 -12 -9 -27z"/>
<path d="M606 844 c-15 -47 -35 -256 -22 -244 6 6 17 69 19 112 1 14 4 26 7
26 16 -1 18 5 10 31 -6 22 -5 28 4 25 15 -6 20 44 8 77 -8 21 -11 18 -26 -27z"/>
<path d="M1441 874 c0 -11 3 -14 6 -6 3 7 2 16 -1 19 -3 4 -6 -2 -5 -13z"/>
<path d="M1857 870 c3 -11 7 -20 9 -20 2 0 4 9 4 20 0 11 -4 20 -9 20 -5 0 -7
-9 -4 -20z"/>
<path d="M2266 877 c3 -10 9 -15 12 -12 3 3 0 11 -7 18 -10 9 -11 8 -5 -6z"/>
<path d="M677 859 c4 -13 8 -18 11 -10 2 7 -1 18 -6 23 -8 8 -9 4 -5 -13z"/>
<path d="M1200 836 c0 -26 4 -45 9 -42 8 5 4 76 -5 85 -2 2 -4 -17 -4 -43z"/>
<path d="M1241 864 c0 -11 3 -14 6 -6 3 7 2 16 -1 19 -3 4 -6 -2 -5 -13z"/>
<path d="M2027 862 c5 -20 43 -48 43 -32 0 5 -5 10 -11 10 -5 0 -8 4 -4 9 3 6
-3 15 -14 20 -16 9 -18 8 -14 -7z"/>
<path d="M2220 856 c0 -14 5 -26 10 -26 6 0 10 9 10 19 0 11 -4 23 -10 26 -6
4 -10 -5 -10 -19z"/>
<path d="M1412 830 c-1 -22 1 -40 6 -40 4 0 7 18 8 40 1 52 -12 52 -14 0z"/>
<path d="M1718 863 c7 -3 16 -2 19 1 4 3 -2 6 -13 5 -11 0 -14 -3 -6 -6z"/>
<path d="M910 800 c0 -32 4 -49 10 -45 6 3 10 -2 11 -12 2 -29 17 27 17 62 0
17 -2 22 -5 13 -2 -10 -9 -18 -14 -18 -6 0 -8 9 -4 19 3 11 1 22 -5 26 -6 4
-10 -12 -10 -45z"/>
<path d="M1103 798 c-1 -29 1 -43 4 -30 2 12 11 22 19 22 17 0 18 19 0 43 -20
26 -22 22 -23 -35z m27 11 c0 -5 -4 -9 -10 -9 -5 0 -10 7 -10 16 0 8 5 12 10
9 6 -3 10 -10 10 -16z"/>
<path d="M1710 846 c0 -2 7 -9 15 -16 12 -10 15 -10 15 4 0 9 -7 16 -15 16 -8
0 -15 -2 -15 -4z"/>
<path d="M1230 808 c0 -25 3 -29 10 -18 13 20 13 50 0 50 -5 0 -10 -15 -10
-32z"/>
<path d="M1441 824 c0 -11 3 -14 6 -6 3 7 2 16 -1 19 -3 4 -6 -2 -5 -13z"/>
<path d="M1838 833 c-10 -2 -18 -9 -18 -14 0 -5 -3 -8 -7 -8 -25 4 -43 -3 -43
-16 0 -8 5 -15 11 -15 5 0 8 4 5 9 -13 20 24 18 38 -2 l17 -22 -6 23 c-4 12
-2 22 4 22 6 0 11 -4 11 -10 0 -5 15 -9 33 -9 30 2 30 2 5 6 -25 4 -33 13 -29
36 0 4 0 6 -1 6 -2 -1 -11 -3 -20 -6z"/>
<path d="M660 813 c0 -10 18 -36 40 -57 22 -22 40 -46 40 -53 0 -8 -3 -12 -7
-10 -5 3 -8 -10 -9 -27 0 -30 1 -32 17 -17 13 10 15 18 8 27 -7 8 -7 14 1 19
5 3 10 -1 10 -9 0 -8 5 -18 10 -21 25 -16 6 27 -30 66 -22 24 -40 50 -40 57 0
13 -23 42 -34 42 -3 0 -6 -8 -6 -17z"/>
<path d="M1024 822 c-15 -10 -13 -42 3 -42 7 0 13 11 13 25 0 28 0 28 -16 17z"/>
<path d="M1339 813 c0 -11 -3 -13 -6 -5 -2 6 -9 10 -14 6 -15 -9 -10 -20 11
-21 14 -1 20 4 20 18 0 24 -10 25 -11 2z"/>
<path d="M1746 814 c-8 -20 -8 -109 0 -102 5 6 14 118 8 118 -1 0 -5 -7 -8
-16z"/>
<path d="M2380 806 c0 -13 -3 -32 -6 -40 -5 -12 -2 -15 10 -10 11 4 15 17 13
40 -2 39 -17 47 -17 10z"/>
<path d="M2030 801 c0 -11 4 -22 9 -25 4 -3 6 6 3 19 -5 30 -12 33 -12 6z"/>
<path d="M1610 804 c0 -19 66 -144 76 -144 7 0 15 -6 17 -12 4 -10 6 -10 6 0
2 20 17 14 18 -8 1 -13 -2 -18 -10 -14 -8 5 -8 3 1 -7 6 -7 13 -29 14 -48 l1
-36 4 33 c2 18 9 30 14 27 5 -4 6 -17 3 -30 -3 -12 -1 -26 4 -29 6 -4 8 3 5
16 -3 17 -2 19 5 9 5 -7 15 -12 22 -9 7 2 -1 16 -19 36 -18 18 -31 43 -31 57
0 20 -5 25 -25 25 -28 0 -50 28 -59 79 -3 19 -11 40 -17 48 -12 13 -29 18 -29
7z"/>
<path d="M855 791 c-3 -5 -1 -12 5 -16 5 -3 10 1 10 9 0 18 -6 21 -15 7z"/>
<path d="M1979 788 c-11 -8 -10 -9 3 -4 10 3 22 -2 27 -12 9 -15 10 -15 11 -1
0 21 -22 30 -41 17z"/>
<path d="M750 778 c0 -9 7 -22 17 -29 15 -13 15 -12 3 11 -17 34 -20 36 -20
18z"/>
<path d="M892 770 c0 -14 2 -19 5 -12 2 6 2 18 0 25 -3 6 -5 1 -5 -13z"/>
<path d="M1203 765 c0 -8 4 -12 9 -9 4 3 8 9 8 15 0 5 -4 9 -8 9 -5 0 -9 -7
-9 -15z"/>
<path d="M1301 764 c0 -11 3 -14 6 -6 3 7 2 16 -1 19 -3 4 -6 -2 -5 -13z"/>
<path d="M1710 770 c0 -5 5 -10 10 -10 6 0 10 5 10 10 0 6 -4 10 -10 10 -5 0
-10 -4 -10 -10z"/>
<path d="M1913 763 c-6 -16 16 -45 29 -37 5 3 1 12 -9 19 -10 7 -15 17 -10 21
4 4 7 2 7 -5 0 -8 7 -10 21 -6 15 5 19 4 15 -4 -4 -6 -2 -11 3 -11 15 0 14 15
-1 27 -18 14 -49 12 -55 -4z"/>
<path d="M1030 753 c0 -15 -2 -16 -10 -3 -5 8 -10 10 -10 4 0 -6 3 -14 8 -18
7 -8 9 -13 11 -46 0 -11 5 -20 9 -20 7 0 9 47 2 60 -1 3 -2 13 -1 23 1 9 0 17
-3 17 -3 0 -6 -8 -6 -17z"/>
<path d="M1129 763 c-1 -5 -1 -16 0 -25 2 -13 -3 -16 -14 -12 -13 5 -16 2 -13
-17 2 -13 9 -23 16 -21 14 2 16 -24 3 -32 -5 -4 -12 0 -14 6 -4 9 -6 10 -6 1
-1 -6 3 -14 8 -17 10 -7 -9 -56 -21 -56 -5 0 -8 -5 -8 -12 0 -6 11 -1 25 12
21 20 25 21 25 7 0 -10 -4 -25 -9 -35 -6 -9 -13 -34 -16 -54 -6 -41 -18 -48
-34 -20 -8 13 -10 10 -9 -18 1 -19 -2 -44 -6 -55 -5 -15 -3 -14 11 5 10 14 28
35 40 48 12 12 20 22 19 22 -2 0 5 23 16 52 13 35 16 53 8 58 -12 7 -10 70 2
70 4 0 8 5 8 11 0 5 -4 7 -10 4 -10 -6 -13 10 -10 58 1 23 -8 40 -11 20z m-4
-53 c3 -5 1 -10 -4 -10 -6 0 -11 5 -11 10 0 6 2 10 4 10 3 0 8 -4 11 -10z"/>
<path d="M1790 756 c0 -9 6 -16 13 -17 6 -1 1 -5 -13 -9 l-25 -8 25 -2 c14 -1
32 -3 40 -5 70 -14 94 -17 85 -7 -5 6 -27 12 -48 15 -38 5 -61 16 -39 18 26 3
31 4 36 10 4 3 -6 5 -21 5 -16 -1 -34 3 -40 8 -9 6 -13 3 -13 -8z"/>
<path d="M2088 763 c7 -3 16 -2 19 1 4 3 -2 6 -13 5 -11 0 -14 -3 -6 -6z"/>
<path d="M850 750 c0 -5 5 -10 11 -10 5 0 7 5 4 10 -3 6 -8 10 -11 10 -2 0 -4
-4 -4 -10z"/>
<path d="M1880 745 c0 -8 4 -15 10 -15 5 0 7 7 4 15 -4 8 -8 15 -10 15 -2 0
-4 -7 -4 -15z"/>
<path d="M1456 703 c-3 -27 -8 -95 -12 -153 -4 -76 -11 -114 -25 -138 -19 -34
-25 -57 -11 -49 4 3 8 -8 9 -24 1 -19 -3 -32 -12 -36 -8 -3 -15 -14 -15 -24 0
-21 15 -26 24 -6 11 24 -7 -89 -20 -128 -11 -34 -11 -42 1 -54 13 -14 12 -19
-14 -68 -10 -20 -9 -23 8 -23 23 0 31 26 31 110 0 36 4 92 9 125 5 33 13 102
16 152 7 87 8 92 26 82 13 -6 19 -6 19 1 0 5 -7 10 -17 10 -14 0 -15 13 -9
135 6 135 3 177 -8 88z"/>
<path d="M1520 730 c0 -15 5 -20 14 -17 18 7 26 -13 26 -64 0 -30 -3 -38 -12
-33 -10 6 -10 5 -1 -8 7 -8 10 -18 6 -21 -3 -4 2 -7 12 -7 14 0 15 3 5 15 -10
12 -9 15 6 15 16 0 17 2 4 10 -12 8 -13 11 -1 19 9 6 10 11 2 15 -6 4 -11 12
-11 17 0 6 5 7 10 4 6 -3 10 3 10 14 0 12 -5 21 -11 21 -5 0 -7 -6 -3 -12 4
-7 4 -10 -1 -6 -4 4 -13 17 -19 30 -15 30 -36 35 -36 8z"/>
<path d="M1715 739 c-4 -6 -5 -12 -2 -15 2 -3 7 2 10 11 7 17 1 20 -8 4z"/>
<path d="M1987 736 c-5 -11 4 -17 31 -21 58 -10 62 -15 8 -11 -27 2 -52 10
-57 17 -6 9 -9 10 -9 2 0 -6 -8 -13 -17 -15 -10 -2 5 -8 32 -12 28 -4 56 -13
64 -19 12 -10 13 -9 7 2 -7 10 -3 12 14 6 15 -5 20 -4 16 4 -4 6 -2 11 4 11 7
0 6 5 -2 14 -7 7 -19 11 -25 9 -7 -3 -13 1 -13 8 0 11 -3 11 -10 -1 -9 -13
-12 -13 -24 3 -12 15 -15 15 -19 3z"/>
<path d="M2220 740 c0 -5 5 -10 11 -10 5 0 7 5 4 10 -3 6 -8 10 -11 10 -2 0
-4 -4 -4 -10z"/>
<path d="M2390 739 c0 -5 -4 -7 -10 -4 -5 3 -10 -1 -10 -9 0 -10 6 -13 15 -10
14 6 22 34 10 34 -3 0 -5 -5 -5 -11z"/>
<path d="M1200 714 c0 -13 5 -24 11 -24 6 0 9 7 5 15 -3 9 0 15 9 15 23 0 18
16 -5 17 -15 1 -20 -4 -20 -23z"/>
<path d="M1301 658 c1 -46 4 -73 6 -60 2 12 8 22 13 22 13 0 20 -28 7 -34 -7
-2 -5 -5 5 -5 14 -1 17 11 17 80 0 45 -3 79 -7 75 -4 -4 -7 -13 -7 -18 0 -6
-6 -13 -13 -16 -7 -2 -10 2 -6 11 3 8 1 18 -5 22 -8 4 -11 -20 -10 -77z m39
22 c0 -5 -7 -10 -15 -10 -8 0 -15 5 -15 10 0 6 7 10 15 10 8 0 15 -4 15 -10z
m-6 -35 c-6 -16 -24 -21 -24 -7 0 11 11 22 21 22 5 0 6 -7 3 -15z"/>
<path d="M1412 720 c0 -14 2 -19 5 -12 2 6 2 18 0 25 -3 6 -5 1 -5 -13z"/>
<path d="M978 682 c5 -24 6 -24 12 -7 7 18 8 18 12 -5 5 -23 5 -23 7 -3 0 13
-7 27 -18 32 -16 9 -17 7 -13 -17z"/>
<path d="M1626 698 c-37 -136 -42 -193 -21 -242 6 -14 5 -17 -3 -12 -7 4 -12
1 -12 -8 0 -8 5 -18 10 -21 8 -5 7 -11 -1 -21 -8 -10 -8 -14 0 -14 6 0 11 -5
11 -11 0 -5 -4 -7 -10 -4 -5 3 -10 1 -10 -4 0 -6 7 -11 16 -11 10 0 13 -6 10
-17 -3 -10 -1 -25 5 -33 7 -11 9 3 7 48 -2 34 0 62 3 62 4 0 5 15 3 33 -1 17
-3 41 -4 52 -1 20 -1 20 -9 0 -7 -16 -9 -11 -12 23 -3 23 -1 42 3 42 4 0 5 7
2 15 -4 8 -4 15 0 15 3 0 9 -15 14 -32 8 -26 10 -13 10 60 1 85 -3 111 -12 80z"/>
<path d="M1762 686 c1 -15 7 -22 15 -19 7 3 13 1 13 -3 1 -5 14 -25 31 -44 24
-28 31 -32 39 -21 7 12 11 12 23 2 13 -10 15 -9 11 6 -7 26 -41 47 -50 31 -4
-7 -3 -8 4 -4 7 4 12 1 12 -8 0 -28 -17 -17 -55 34 -20 28 -39 50 -41 50 -2 0
-3 -11 -2 -24z"/>
<path d="M2384 697 c-6 -7 -13 -22 -16 -33 -4 -17 -1 -20 17 -17 17 4 21 10
17 34 -2 16 -5 29 -6 29 0 -1 -6 -6 -12 -13z"/>
<path d="M910 694 c0 -7 7 -27 15 -45 14 -30 15 -30 10 -7 -4 23 -2 26 11 21
12 -4 15 -2 12 8 -3 8 -11 13 -18 11 -7 -2 -17 3 -21 10 -6 8 -9 9 -9 2z"/>
<path d="M861 660 c0 -29 1 -32 10 -17 7 11 7 23 0 35 -9 14 -10 11 -10 -18z"/>
<path d="M1485 680 c3 -5 8 -10 11 -10 2 0 4 5 4 10 0 6 -5 10 -11 10 -5 0 -7
-4 -4 -10z"/>
<path d="M1912 671 c13 -22 45 -24 45 -4 0 9 -4 10 -14 2 -9 -9 -14 -7 -19 5
-3 9 -10 16 -15 16 -5 0 -4 -9 3 -19z"/>
<path d="M2056 662 c-2 -4 2 -16 10 -27 8 -10 14 -14 14 -8 0 7 -5 15 -10 18
-6 4 -8 11 -5 16 4 5 4 9 1 9 -3 0 -7 -3 -10 -8z"/>
<path d="M2081 665 c1 -19 18 -51 18 -35 0 8 -4 22 -9 30 -5 8 -9 11 -9 5z"/>
<path d="M661 647 c-6 -8 -13 -31 -15 -53 l-5 -39 10 35 c6 19 15 43 20 53 11
20 6 22 -10 4z"/>
<path d="M1970 651 c0 -6 4 -13 10 -16 6 -3 7 1 4 9 -7 18 -14 21 -14 7z"/>
<path d="M2121 638 c-9 -23 -6 -38 7 -38 4 0 7 14 8 30 1 36 -4 38 -15 8z"/>
<path d="M1039 633 c-2 -31 2 -58 11 -67 4 -4 7 4 7 18 -1 14 -5 26 -9 26 -3
0 -4 9 -1 20 3 11 3 20 -1 20 -3 0 -7 -8 -7 -17z"/>
<path d="M2031 634 c0 -11 3 -14 6 -6 3 7 2 16 -1 19 -3 4 -6 -2 -5 -13z"/>
<path d="M679 640 c0 -3 -2 -13 -4 -22 -2 -10 1 -18 5 -18 15 0 19 15 9 30 -5
8 -9 13 -10 10z"/>
<path d="M1230 622 c0 -10 -5 -23 -12 -30 -9 -9 -8 -12 5 -12 12 0 17 8 17 30
0 17 -2 30 -5 30 -3 0 -5 -8 -5 -18z"/>
<path d="M2171 624 c0 -11 3 -14 6 -6 3 7 2 16 -1 19 -3 4 -6 -2 -5 -13z"/>
<path d="M2401 624 c0 -11 3 -14 6 -6 3 7 2 16 -1 19 -3 4 -6 -2 -5 -13z"/>
<path d="M723 606 c0 -9 7 -12 16 -9 12 5 13 3 5 -6 -11 -12 13 -86 69 -214
33 -77 20 -199 -18 -167 -9 7 -16 6 -24 -4 -10 -12 -8 -16 8 -21 12 -3 21 -13
21 -21 0 -8 -4 -13 -8 -10 -5 3 -8 -4 -7 -16 2 -24 -9 -95 -19 -123 -8 -20 -7
-20 8 -1 14 17 16 18 16 3 0 -9 3 -17 8 -17 4 0 8 28 9 62 3 103 7 126 25 137
13 8 18 2 32 -39 15 -47 15 -50 -9 -104 -19 -43 -21 -56 -11 -56 8 0 19 12 24
28 6 15 11 20 11 12 1 -8 13 3 27 24 18 27 29 35 34 26 5 -8 10 -2 15 19 3 17
13 31 21 31 8 0 14 5 14 10 0 20 -52 -18 -88 -64 -12 -16 -22 -22 -22 -14 0 8
4 18 10 24 5 5 6 24 0 49 -5 22 -7 41 -6 43 2 2 -7 14 -21 28 -13 13 -21 29
-17 35 7 13 -5 223 -14 215 -3 -3 -5 -22 -4 -43 1 -25 -2 -33 -9 -26 -15 15
-18 46 -6 61 6 8 6 12 -1 12 -6 0 -13 -6 -15 -12 -5 -11 -9 9 -6 28 0 4 -4 10
-10 13 -9 6 -19 40 -25 85 -3 22 -33 42 -33 22z"/>
<path d="M1996 611 c-4 -6 -2 -11 4 -11 7 0 8 -6 1 -19 -8 -15 -5 -25 14 -47
14 -16 28 -37 31 -47 5 -15 7 -15 20 -3 18 19 7 48 -16 41 -22 -7 -44 37 -27
54 8 8 7 15 -5 27 -11 11 -18 12 -22 5z"/>
<path d="M2370 595 c0 -14 4 -25 9 -25 4 0 6 11 3 25 -2 14 -6 25 -8 25 -2 0
-4 -11 -4 -25z"/>
<path d="M1011 595 c0 -11 4 -29 9 -40 9 -20 9 -20 9 0 0 11 -4 29 -9 40 -9
20 -9 20 -9 0z"/>
<path d="M2095 585 c4 -16 8 -35 8 -42 1 -21 27 -24 27 -4 0 11 -5 21 -11 23
-5 2 -11 11 -13 20 -1 10 -6 21 -10 25 -5 4 -5 -5 -1 -22z"/>
<path d="M958 593 c6 -2 12 -11 12 -19 0 -9 -5 -12 -12 -8 -7 4 -8 3 -4 -4 12
-20 26 -13 26 13 0 17 -5 25 -17 24 -11 0 -13 -3 -5 -6z"/>
<path d="M1400 589 c0 -5 5 -7 10 -4 6 3 10 8 10 11 0 2 -4 4 -10 4 -5 0 -10
-5 -10 -11z"/>
<path d="M1482 580 c0 -14 2 -19 5 -12 2 6 2 18 0 25 -3 6 -5 1 -5 -13z"/>
<path d="M1700 580 c0 -11 4 -20 9 -20 5 0 7 9 4 20 -3 11 -7 20 -9 20 -2 0
-4 -9 -4 -20z"/>
<path d="M2154 586 c-10 -27 2 -43 14 -19 8 14 9 24 2 28 -6 3 -13 -1 -16 -9z"/>
<path d="M2403 572 c-3 -12 -8 -20 -12 -18 -3 2 -6 -8 -7 -22 0 -15 -4 -42 -9
-59 -7 -30 -5 -33 15 -33 17 0 21 -4 17 -20 -3 -11 0 -20 5 -20 14 0 1 82 -15
92 -9 6 -9 8 0 8 6 0 10 8 8 18 -1 9 2 28 7 41 5 13 6 26 3 29 -3 4 -8 -4 -12
-16z m-3 -112 c0 -5 -5 -10 -11 -10 -5 0 -7 5 -4 10 3 6 8 10 11 10 2 0 4 -4
4 -10z"/>
<path d="M880 571 c0 -5 6 -14 14 -20 12 -10 13 -8 9 8 -5 21 -23 30 -23 12z"/>
<path d="M1856 572 c-3 -5 1 -9 9 -9 8 0 12 4 9 9 -3 4 -7 8 -9 8 -2 0 -6 -4
-9 -8z"/>
<path d="M561 527 c2 -26 8 -47 13 -47 6 0 1 -8 -10 -18 -20 -16 -41 -87 -22
-76 4 3 8 12 8 20 0 9 5 12 11 8 8 -5 8 -1 0 14 -8 16 -7 19 6 18 19 -1 29 44
12 55 -8 5 -8 12 0 27 8 15 7 23 -5 33 -13 11 -15 7 -13 -34z"/>
<path d="M1232 550 c0 -14 2 -19 5 -12 2 6 2 18 0 25 -3 6 -5 1 -5 -13z"/>
<path d="M1301 554 c0 -11 3 -14 6 -6 3 7 2 16 -1 19 -3 4 -6 -2 -5 -13z"/>
<path d="M1906 555 c-3 -9 -11 -13 -17 -10 -5 4 2 -11 18 -33 15 -22 32 -37
38 -34 5 3 4 7 -3 10 -7 2 -12 10 -12 18 0 8 -4 14 -10 14 -5 0 -10 7 -10 17
0 14 2 14 20 -2 11 -10 20 -14 20 -8 0 5 -8 18 -19 27 -17 15 -19 15 -25 1z"/>
<path d="M1951 553 c7 -12 15 -20 18 -17 3 2 -3 12 -13 22 -17 16 -18 16 -5
-5z"/>
<path d="M2286 554 c-10 -27 -7 -31 18 -27 17 4 22 10 19 24 -6 23 -29 25 -37
3z m24 -4 c0 -5 -5 -10 -11 -10 -5 0 -7 5 -4 10 3 6 8 10 11 10 2 0 4 -4 4
-10z"/>
<path d="M817 546 c-16 -12 -16 -14 -2 -20 12 -4 13 -10 6 -24 -8 -14 -6 -19
5 -19 7 0 14 7 14 16 0 9 3 26 6 39 7 25 -3 28 -29 8z"/>
<path d="M1192 516 c-2 -40 1 -47 14 -42 9 3 20 6 25 6 5 0 9 8 9 18 0 10 -7
19 -15 19 -10 0 -12 -4 -5 -12 7 -9 6 -14 -4 -18 -11 -5 -16 4 -19 36 l-4 42
-1 -49z"/>
<path d="M2040 550 c0 -5 5 -10 11 -10 5 0 7 5 4 10 -3 6 -8 10 -11 10 -2 0
-4 -4 -4 -10z"/>
<path d="M870 545 c0 -5 5 -17 10 -25 5 -8 10 -10 10 -5 0 6 -5 17 -10 25 -5
8 -10 11 -10 5z"/>
<path d="M1482 520 c0 -19 2 -27 5 -17 2 9 2 25 0 35 -3 9 -5 1 -5 -18z"/>
<path d="M1550 508 c0 -38 4 -48 16 -48 14 0 14 3 3 16 -10 13 -10 17 2 25 10
6 11 9 1 9 -7 0 -11 4 -8 8 2 4 1 14 -5 22 -6 10 -9 0 -9 -32z"/>
<path d="M1266 513 c-6 -14 -5 -15 5 -6 7 7 10 15 7 18 -3 3 -9 -2 -12 -12z"/>
<path d="M1300 507 c0 -18 2 -20 11 -7 9 12 10 11 6 -7 -3 -12 0 -24 5 -25 6
-2 1 -21 -11 -43 -11 -22 -21 -47 -20 -55 0 -10 2 -11 6 -2 2 6 9 12 14 12 6
0 7 -5 4 -10 -4 -6 -1 -9 7 -8 15 3 32 38 23 47 -3 3 -10 -1 -15 -9 -16 -26
-12 14 5 46 8 17 11 32 6 37 -5 5 -7 15 -5 22 3 7 -4 15 -15 18 -17 4 -21 0
-21 -16z"/>
<path d="M1720 495 c0 -19 -5 -35 -11 -35 -6 0 -9 9 -6 20 3 11 1 20 -4 20 -5
0 -9 -11 -9 -25 0 -16 6 -25 15 -25 8 0 15 -7 15 -15 0 -9 16 -23 35 -32 32
-15 40 -28 36 -58 -1 -5 6 -1 14 9 15 19 15 19 15 -2 0 -12 4 -22 10 -22 5 0
7 7 4 15 -4 8 -1 15 6 15 22 0 50 -21 50 -38 0 -14 2 -14 9 -3 5 8 7 20 4 27
-3 8 3 12 16 11 21 -1 31 -17 11 -17 -5 0 -10 -7 -10 -15 0 -8 5 -15 11 -15 5
0 7 5 4 11 -4 6 2 13 14 16 l21 5 -21 19 c-12 10 -26 16 -30 13 -5 -3 -9 3 -9
13 0 11 -7 28 -16 39 -8 10 -13 13 -9 7 3 -7 1 -22 -5 -33 -9 -16 -8 -22 5
-26 8 -3 12 -10 9 -15 -2 -5 -13 -5 -22 0 -9 4 -34 16 -54 26 -21 10 -38 24
-38 32 0 7 -4 13 -9 13 -6 0 -12 15 -14 33 -4 28 -4 27 -3 -6 1 -21 -3 -36 -9
-34 -5 2 -10 27 -10 55 0 29 -3 52 -7 52 -5 0 -8 -16 -8 -35z m177 -107 c-3
-8 -6 -5 -6 6 -1 11 2 17 5 13 3 -3 4 -12 1 -19z"/>
<path d="M2135 512 c-17 -14 -20 -30 -21 -90 0 -54 2 -68 9 -50 5 12 6 45 3
71 -4 41 -3 48 10 43 8 -3 17 1 20 9 10 26 0 34 -21 17z"/>
<path d="M1965 496 c4 -18 2 -32 -5 -36 -9 -6 -9 -13 -1 -28 8 -15 8 -21 -2
-25 -6 -2 -10 -7 -7 -10 3 -3 18 4 34 16 l28 22 -27 45 c-22 38 -26 40 -20 16z
m35 -56 c0 -5 -7 -10 -16 -10 -8 0 -12 5 -9 10 3 6 10 10 16 10 5 0 9 -4 9
-10z"/>
<path d="M620 482 c0 -17 3 -33 8 -35 9 -6 8 50 -1 60 -4 3 -7 -8 -7 -25z"/>
<path d="M718 484 c2 -13 8 -24 13 -24 12 0 6 39 -7 44 -7 3 -9 -5 -6 -20z"/>
<path d="M1402 490 c0 -14 2 -19 5 -12 2 6 2 18 0 25 -3 6 -5 1 -5 -13z"/>
<path d="M1806 475 c17 -22 31 -32 41 -28 12 5 14 1 8 -17 -5 -16 -4 -20 4
-16 14 9 10 43 -7 71 -13 19 -13 19 -7 -2 3 -12 1 -24 -5 -28 -5 -3 -10 2 -10
12 0 10 -11 23 -25 29 l-24 12 25 -33z"/>
<path d="M2470 445 c0 -44 3 -53 15 -49 11 4 15 21 15 55 0 37 -4 49 -15 49
-12 0 -15 -13 -15 -55z"/>
<path d="M973 474 c-3 -9 0 -20 8 -25 21 -13 32 -11 25 7 -3 9 -6 20 -6 25 0
15 -20 10 -27 -7z"/>
<path d="M906 468 c3 -5 10 -6 15 -3 13 9 11 12 -6 12 -8 0 -12 -4 -9 -9z"/>
<path d="M861 454 c0 -11 3 -14 6 -6 3 7 2 16 -1 19 -3 4 -6 -2 -5 -13z"/>
<path d="M2069 468 c-5 -16 -3 -55 3 -52 4 3 8 -4 8 -14 0 -11 -7 -23 -16 -26
-22 -8 -26 -8 -19 4 11 17 -3 11 -30 -14 -16 -15 -26 -34 -24 -48 1 -13 -2
-32 -6 -43 -11 -27 -64 -77 -76 -70 -14 9 -11 25 6 25 8 0 15 5 15 10 0 6 -8
10 -18 10 -11 0 -23 -13 -31 -35 -7 -21 -17 -33 -23 -29 -7 4 -8 2 -4 -4 4 -7
3 -12 -2 -12 -11 0 -35 -60 -28 -67 2 -3 7 5 11 18 6 17 9 19 16 8 7 -11 9
-11 9 2 0 9 9 28 20 42 17 22 25 25 45 17 18 -7 24 -6 22 2 -3 14 47 41 51 28
2 -5 15 2 30 15 15 14 30 25 34 25 5 0 8 10 8 23 0 20 -4 18 -35 -17 -19 -21
-35 -37 -36 -35 -6 32 -6 38 4 32 6 -4 8 0 4 10 -3 9 0 18 9 21 8 3 14 11 14
17 0 8 -4 8 -15 -1 -13 -10 -15 -9 -15 12 0 19 7 27 35 35 34 11 35 11 35 -18
0 -16 6 -32 14 -35 14 -5 14 -22 1 -56 -12 -30 9 -20 23 11 10 22 10 34 1 55
-7 14 -16 26 -21 26 -11 0 -10 33 1 46 11 11 2 84 -10 84 -5 0 -9 -1 -10 -2z"/>
<path d="M875 430 c-4 -17 -5 -34 -2 -36 2 -3 7 10 11 27 8 42 0 50 -9 9z"/>
<path d="M1188 416 c-3 -42 -1 -46 20 -46 15 0 21 -4 16 -12 -4 -6 -3 -8 4 -5
11 8 11 25 -1 45 -5 6 -5 18 -1 25 5 9 4 9 -6 0 -11 -10 -11 -15 0 -28 10 -12
10 -15 -5 -15 -13 0 -16 8 -14 34 2 19 1 38 -3 41 -3 3 -8 -14 -10 -39z"/>
<path d="M1471 430 c-2 -62 28 -96 58 -64 9 9 11 14 5 11 -7 -4 -11 0 -10 10
0 9 -5 18 -11 20 -8 3 -13 -4 -13 -18 0 -32 -12 -16 -20 28 -6 27 -8 31 -9 13z"/>
<path d="M1547 422 c-5 -25 10 -49 23 -35 3 3 -1 8 -7 10 -9 3 -10 10 -3 23 6
11 6 21 1 24 -5 3 -11 -7 -14 -22z"/>
<path d="M597 426 c-4 -10 -5 -21 -2 -24 9 -9 17 6 13 25 -3 17 -4 17 -11 -1z"/>
<path d="M26 417 c3 -10 9 -15 12 -12 3 3 0 11 -7 18 -10 9 -11 8 -5 -6z"/>
<path d="M642 410 c0 -14 2 -19 5 -12 2 6 2 18 0 25 -3 6 -5 1 -5 -13z"/>
<path d="M1120 409 c0 -5 -4 -8 -9 -5 -5 4 -7 -3 -4 -14 7 -28 18 -25 21 5 1
14 0 25 -3 25 -3 0 -5 -5 -5 -11z"/>
<path d="M1790 416 c0 -2 7 -7 16 -10 8 -3 12 -2 9 4 -6 10 -25 14 -25 6z"/>
<path d="M941 393 c8 -9 9 -14 3 -10 -7 4 -14 0 -17 -8 -4 -9 -1 -12 10 -8 8
3 19 0 23 -7 4 -7 10 -8 13 -3 7 12 -20 53 -35 53 -6 0 -5 -7 3 -17z"/>
<path d="M2290 395 c0 -8 2 -15 4 -15 2 0 6 7 10 15 3 8 1 15 -4 15 -6 0 -10
-7 -10 -15z"/>
<path d="M2322 384 c-7 -14 -15 -23 -20 -21 -4 3 -7 -8 -8 -24 -1 -26 0 -27
12 -11 13 16 13 16 15 -3 1 -11 5 3 9 30 8 59 7 64 -8 29z"/>
<path d="M1019 397 c0 -1 -2 -14 -4 -30 -4 -29 8 -28 25 3 7 13 6 19 -5 24 -8
3 -15 4 -16 3z"/>
<path d="M1690 379 c0 -15 7 -29 15 -33 21 -8 19 -23 -5 -29 -18 -5 -21 -14
-20 -64 0 -5 11 -11 24 -14 20 -6 25 -3 29 17 2 13 1 24 -2 24 -4 0 -7 9 -8
20 -1 11 2 20 7 20 5 0 7 14 5 31 -5 33 -15 53 -15 29 0 -9 -5 -7 -15 6 -14
18 -14 18 -15 -7z m20 -98 c-5 -10 -6 -21 -3 -25 3 -3 1 -6 -5 -6 -6 0 -9 12
-8 28 5 35 4 34 16 27 7 -4 7 -12 0 -24z"/>
<path d="M2383 362 c6 -53 13 -62 19 -23 2 16 -2 37 -10 47 -12 17 -13 15 -9
-24z"/>
<path d="M56 365 c9 -14 19 -24 21 -21 6 6 -20 46 -30 46 -4 0 0 -11 9 -25z"/>
<path d="M1081 374 c0 -11 3 -14 6 -6 3 7 2 16 -1 19 -3 4 -6 -2 -5 -13z"/>
<path d="M2421 374 c0 -11 3 -14 6 -6 3 7 2 16 -1 19 -3 4 -6 -2 -5 -13z"/>
<path d="M603 343 c-10 -34 -10 -36 3 -19 12 17 20 56 11 56 -1 0 -7 -17 -14
-37z"/>
<path d="M2471 333 c1 -30 4 -37 6 -20 2 15 9 27 14 27 6 0 7 -5 3 -12 -4 -7
-3 -8 4 -4 17 10 15 24 -5 29 -17 4 -17 5 0 6 24 1 22 21 -3 21 -17 0 -20 -6
-19 -47z"/>
<path d="M526 362 c-3 -6 -2 -20 2 -33 l9 -23 6 25 c7 25 -6 48 -17 31z"/>
<path d="M708 363 c6 -2 18 -2 25 0 6 3 1 5 -13 5 -14 0 -19 -2 -12 -5z"/>
<path d="M2133 345 c-8 -9 -9 -16 -3 -20 6 -3 13 1 16 10 9 21 2 26 -13 10z"/>
<path d="M2260 340 c-6 -12 -9 -33 -7 -48 l4 -27 2 28 c0 15 5 27 9 27 4 0 8
9 8 20 0 25 -3 25 -16 0z"/>
<path d="M895 340 c-3 -5 1 -10 9 -10 8 0 18 5 21 10 3 6 -1 10 -9 10 -8 0
-18 -4 -21 -10z"/>
<path d="M1465 339 c-4 -6 -5 -12 -2 -15 2 -3 7 2 10 11 7 17 1 20 -8 4z"/>
<path d="M1543 336 c0 -7 6 -13 14 -13 7 0 13 4 13 8 0 4 -6 9 -13 12 -8 3
-14 0 -14 -7z"/>
<path d="M630 331 c0 -6 4 -13 10 -16 6 -3 7 1 4 9 -7 18 -14 21 -14 7z"/>
<path d="M963 308 c2 -7 0 -24 -5 -38 -7 -20 -11 -22 -18 -10 -5 8 -10 11 -11
5 0 -5 -2 -20 -3 -32 -2 -13 -2 -23 -1 -23 1 0 14 17 29 38 27 40 34 72 15 72
-6 0 -9 -6 -6 -12z"/>
<path d="M1013 300 c1 -12 5 -16 10 -11 5 5 17 7 26 4 12 -3 11 -1 -3 11 -26
21 -35 20 -33 -4z"/>
<path d="M1791 268 c0 -31 -2 -62 -4 -70 -2 -7 1 -3 7 10 6 13 16 20 25 17 12
-3 16 2 16 20 0 25 -24 36 -26 13 -1 -7 -5 5 -9 27 -7 39 -7 38 -9 -17z"/>
<path d="M2408 289 c-18 -31 -26 -88 -9 -60 5 7 13 11 18 8 4 -3 9 15 10 39 1
24 1 44 0 44 -1 0 -10 -14 -19 -31z"/>
<path d="M1311 297 c-10 -10 -64 -15 -186 -18 -80 -1 -80 -1 -40 -14 22 -6 41
-9 43 -4 2 4 16 3 33 -3 16 -5 36 -8 43 -5 9 4 17 -1 19 -11 4 -16 5 -15 6 1
0 9 7 18 14 18 64 8 76 6 80 -9 4 -15 5 -15 6 1 1 10 9 17 21 17 11 0 20 6 20
14 0 16 -45 27 -59 13z"/>
<path d="M1453 250 c-5 -34 -6 -63 -2 -65 4 -3 9 -1 11 4 1 5 16 7 31 4 24 -5
28 -10 24 -29 -3 -19 0 -24 16 -24 17 0 18 2 6 16 -10 13 -10 17 0 24 16 10 6
16 -42 24 l-38 7 7 50 c9 70 -1 61 -13 -11z"/>
<path d="M685 291 c-3 -2 -5 -12 -5 -22 0 -12 5 -16 15 -13 8 4 15 12 15 19 0
7 6 15 13 18 6 3 2 4 -11 4 -13 -1 -25 -3 -27 -6z"/>
<path d="M796 284 c-19 -18 -21 -34 -4 -34 6 0 8 3 5 7 -4 3 0 15 10 25 20 22
11 24 -11 2z"/>
<path d="M1890 285 c0 -8 4 -15 10 -15 5 0 7 7 4 15 -4 8 -8 15 -10 15 -2 0
-4 -7 -4 -15z"/>
<path d="M1527 248 c-6 -40 -4 -43 20 -29 10 6 12 11 6 11 -7 0 -13 9 -13 20
0 18 2 18 32 6 18 -8 35 -22 38 -32 6 -15 8 -13 14 10 4 16 6 30 4 31 -2 2
-24 6 -49 9 -47 6 -47 6 -52 -26z"/>
<path d="M2483 260 c3 -11 1 -20 -4 -20 -5 0 -1 -9 8 -19 9 -11 21 -17 26 -14
5 3 3 9 -4 14 -12 7 -11 9 1 9 12 1 11 3 -2 11 -10 5 -18 15 -18 20 0 6 5 7
10 4 6 -3 10 -1 10 4 0 6 -7 11 -16 11 -11 0 -15 -6 -11 -20z"/>
<path d="M878 259 c-3 -8 -2 -23 2 -33 6 -18 7 -18 13 -2 4 10 3 25 -1 33 -7
12 -10 13 -14 2z"/>
<path d="M2290 241 c1 -24 2 -24 14 -8 16 21 30 22 22 2 -3 -8 -1 -15 4 -15 6
0 10 8 10 19 0 12 -9 20 -25 23 -22 5 -25 2 -25 -21z"/>
<path d="M991 244 c0 -11 3 -14 6 -6 3 7 2 16 -1 19 -3 4 -6 -2 -5 -13z"/>
<path d="M2126 225 c-4 -16 -12 -50 -18 -73 -9 -36 -8 -46 3 -53 10 -6 16 -2
20 14 3 12 3 26 -2 31 -4 4 -3 21 3 37 5 15 8 38 6 51 -4 21 -5 20 -12 -7z"/>
<path d="M1571 224 c0 -11 3 -14 6 -6 3 7 2 16 -1 19 -3 4 -6 -2 -5 -13z"/>
<path d="M470 219 c0 -5 5 -7 10 -4 6 3 10 8 10 11 0 2 -4 4 -10 4 -5 0 -10
-5 -10 -11z"/>
<path d="M670 220 c0 -5 5 -10 11 -10 5 0 7 5 4 10 -3 6 -8 10 -11 10 -2 0 -4
-4 -4 -10z"/>
<path d="M1680 215 c0 -8 2 -15 4 -15 2 0 6 7 10 15 3 8 1 15 -4 15 -6 0 -10
-7 -10 -15z"/>
<path d="M527 201 c-4 -17 -3 -21 5 -13 5 5 8 16 6 23 -3 8 -7 3 -11 -10z"/>
<path d="M1018 209 c-10 -6 -18 -14 -18 -19 0 -14 37 -12 46 1 10 17 -9 29
-28 18z"/>
<path d="M1100 209 c0 -5 5 -7 10 -4 6 3 10 8 10 11 0 2 -4 4 -10 4 -5 0 -10
-5 -10 -11z"/>
<path d="M2061 115 c-18 -58 -31 -108 -27 -112 3 -3 6 2 6 12 0 18 0 18 13 0
13 -16 14 -15 10 12 -3 16 7 66 20 111 14 45 22 82 19 82 -4 0 -22 -47 -41
-105z"/>
<path d="M710 200 c20 -13 33 -13 25 0 -3 6 -14 10 -23 10 -15 0 -15 -2 -2
-10z"/>
<path d="M940 190 c-17 -13 -20 -20 -10 -20 8 0 21 9 28 20 15 25 13 25 -18 0z"/>
<path d="M1203 203 c-7 -3 -13 -14 -12 -26 0 -21 1 -20 11 3 9 23 11 24 17 6
7 -19 8 -19 13 0 5 20 -4 25 -29 17z"/>
<path d="M1381 194 c0 -11 3 -14 6 -6 3 7 2 16 -1 19 -3 4 -6 -2 -5 -13z"/>
<path d="M2026 201 c-3 -5 2 -15 12 -22 15 -12 16 -12 5 2 -7 9 -10 19 -6 22
3 4 4 7 0 7 -3 0 -8 -4 -11 -9z"/>
<path d="M2292 183 c-15 -41 -12 -62 10 -58 31 6 38 15 37 48 l-1 32 -9 -32
c-12 -41 -29 -52 -29 -19 0 14 5 28 10 31 12 8 13 25 1 25 -5 0 -13 -12 -19
-27z"/>
<path d="M443 185 c-3 -9 -3 -19 1 -22 3 -4 -1 -15 -11 -25 -9 -10 -12 -18 -7
-18 13 0 54 62 48 72 -8 13 -24 9 -31 -7z m14 -17 c-3 -8 -6 -5 -6 6 -1 11 2
17 5 13 3 -3 4 -12 1 -19z"/>
<path d="M1127 193 c-4 -3 -7 -11 -7 -17 0 -6 5 -5 12 2 6 6 9 14 7 17 -3 3
-9 2 -12 -2z"/>
<path d="M1274 167 c-3 -10 -3 -21 0 -24 3 -4 6 1 6 10 0 10 5 17 10 17 6 0
10 -5 10 -11 0 -5 5 -7 10 -4 17 11 11 31 -10 31 -11 0 -23 -9 -26 -19z"/>
<path d="M1340 170 c0 -5 5 -10 10 -10 6 0 10 5 10 10 0 6 -4 10 -10 10 -5 0
-10 -4 -10 -10z"/>
<path d="M1600 155 c0 -17 -5 -36 -12 -43 -7 -7 -8 -12 -4 -12 5 0 3 -6 -3
-14 -7 -8 -9 -25 -5 -41 8 -34 13 -28 20 26 4 24 10 53 14 65 5 11 4 27 -1 35
-6 10 -9 5 -9 -16z"/>
<path d="M1670 161 c0 -12 5 -21 10 -21 6 0 10 6 10 14 0 8 -4 18 -10 21 -5 3
-10 -3 -10 -14z"/>
<path d="M1707 173 c-4 -3 -7 -20 -6 -37 l1 -31 8 35 c9 36 8 45 -3 33z"/>
<path d="M2385 172 c-41 -8 -36 -21 6 -17 24 2 67 4 94 4 36 1 46 4 35 11 -15
9 -95 11 -135 2z"/>
<path d="M507 150 c-3 -13 1 -21 15 -26 27 -8 29 -3 8 23 -17 22 -18 22 -23 3z"/>
<path d="M540 160 c0 -5 5 -10 11 -10 5 0 7 5 4 10 -3 6 -8 10 -11 10 -2 0 -4
-4 -4 -10z"/>
<path d="M1440 140 c0 -39 6 -39 12 0 3 17 1 30 -4 30 -4 0 -8 -13 -8 -30z"/>
<path d="M1568 163 c6 -2 9 -10 6 -15 -4 -7 -2 -8 4 -4 18 11 14 26 -5 25 -11
0 -13 -3 -5 -6z"/>
<path d="M1780 140 c-16 -18 -30 -36 -30 -42 0 -5 -4 -7 -9 -3 -5 3 -12 1 -16
-5 -3 -5 -2 -10 3 -10 5 0 8 -12 7 -27 -1 -16 0 -19 2 -8 2 11 10 25 16 30 23
19 69 86 63 92 -3 3 -19 -9 -36 -27z"/>
<path d="M1911 143 c-1 -28 2 -33 23 -33 19 0 22 4 18 25 -2 14 -8 22 -13 20
-4 -3 -6 -12 -2 -20 3 -8 0 -15 -5 -15 -6 0 -13 12 -15 28 -4 25 -4 25 -6 -5z"/>
<path d="M2595 140 c3 -19 7 -46 10 -60 3 -14 7 -36 10 -49 2 -13 7 -26 11
-30 10 -9 -5 82 -21 131 -14 41 -14 41 -10 8z"/>
<path d="M1006 153 c-6 -7 12 -33 24 -33 3 0 7 7 7 15 0 15 -21 28 -31 18z"/>
<path d="M1092 140 c0 -14 2 -19 5 -12 2 6 2 18 0 25 -3 6 -5 1 -5 -13z"/>
<path d="M1117 139 c6 -23 9 -24 16 -5 3 8 0 17 -7 19 -10 4 -12 -1 -9 -14z"/>
<path d="M2011 143 c0 -13 5 -23 12 -23 9 0 9 -2 -1 -9 -7 -4 -14 -19 -16 -32
-2 -13 -7 -32 -11 -41 -4 -10 -5 -23 -2 -30 3 -7 12 4 22 26 9 21 14 45 11 53
-3 8 -2 12 3 9 9 -6 21 26 21 54 -1 12 -4 11 -14 -3 -14 -18 -14 -18 -19 0 -4
14 -5 14 -6 -4z"/>
<path d="M1181 143 c-1 -6 -4 -20 -7 -30 -5 -17 -5 -17 6 0 6 10 9 23 6 30 -3
9 -5 9 -5 0z"/>
<path d="M1200 139 c0 -5 5 -7 10 -4 6 3 10 8 10 11 0 2 -4 4 -10 4 -5 0 -10
-5 -10 -11z"/>
<path d="M2513 131 c1 -14 9 -25 18 -27 12 -1 15 4 11 18 -3 14 -7 16 -12 7
-6 -8 -10 -6 -13 7 -4 14 -5 12 -4 -5z"/>
<path d="M2413 126 c4 -10 7 -24 7 -32 0 -9 4 -13 9 -10 11 7 3 44 -12 53 -7
4 -8 0 -4 -11z"/>
<path d="M2440 133 c0 -4 5 -15 10 -23 8 -13 10 -13 10 2 0 9 -4 20 -10 23 -5
3 -10 3 -10 -2z"/>
<path d="M1508 95 c-3 -27 -1 -34 10 -30 7 3 16 5 19 5 3 0 0 7 -7 15 -8 10
-9 15 -2 15 6 0 9 7 6 15 -10 26 -22 17 -26 -20z"/>
<path d="M1661 114 c0 -11 3 -14 6 -6 3 7 2 16 -1 19 -3 4 -6 -2 -5 -13z"/>
<path d="M1197 113 c-5 -7 -5 -17 -2 -23 3 -5 1 -10 -6 -10 -10 0 -10 -3 -1
-12 16 -16 24 -5 20 29 -2 18 -6 24 -11 16z"/>
<path d="M419 109 c-1 -2 -3 -17 -5 -33 -3 -25 0 -27 19 -21 12 3 28 7 35 7 6
1 12 5 12 10 0 6 -6 8 -12 5 -7 -2 -21 5 -30 16 -10 11 -19 18 -19 16z"/>
<path d="M1020 101 c0 -7 -7 -11 -14 -8 -9 4 -17 -2 -21 -13 -7 -22 4 -70 16
-70 12 0 11 37 -1 45 -15 9 -12 25 4 25 17 0 31 18 22 27 -3 4 -6 1 -6 -6z"/>
<path d="M1098 92 c3 -10 1 -13 -6 -8 -7 4 -15 0 -19 -9 -6 -17 11 -35 32 -35
6 1 2 5 -7 11 -10 5 -18 15 -18 20 0 6 5 7 11 3 6 -3 15 0 20 7 12 20 11 26
-5 26 -8 0 -12 -6 -8 -15z"/>
<path d="M2311 103 c0 -6 2 -18 5 -26 7 -20 44 -10 43 12 0 10 -2 11 -6 4 -7
-19 -31 -16 -36 5 -3 9 -5 12 -6 5z"/>
<path d="M491 83 c-1 -17 5 -23 19 -23 11 0 20 5 20 10 0 6 -6 10 -14 10 -8 0
-17 6 -19 13 -3 6 -6 2 -6 -10z"/>
<path d="M1262 75 c0 -16 2 -22 5 -12 2 9 2 23 0 30 -3 6 -5 -1 -5 -18z"/>
<path d="M1293 85 c-10 -10 -9 -16 3 -26 18 -15 22 -10 15 17 -5 18 -8 20 -18
9z"/>
<path d="M1161 74 c0 -11 3 -14 6 -6 3 7 2 16 -1 19 -3 4 -6 -2 -5 -13z"/>
<path d="M1374 75 c-3 -8 -4 -20 -2 -27 3 -7 7 -1 10 15 6 29 1 36 -8 12z"/>
<path d="M1554 61 c3 -13 1 -33 -5 -43 -6 -10 -6 -18 -1 -18 15 0 22 40 11 63
-9 21 -9 21 -5 -2z"/>
<path d="M1656 48 c2 -16 -1 -28 -6 -28 -6 0 -10 -4 -10 -10 0 -32 54 15 58
50 2 22 1 23 -8 8 -13 -21 -27 -23 -33 -5 -2 6 -3 0 -1 -15z"/>
<path d="M1947 60 c-3 -11 -1 -20 4 -20 5 0 9 9 9 20 0 11 -2 20 -4 20 -2 0
-6 -9 -9 -20z"/>
<path d="M2104 65 c10 -48 18 -66 29 -62 6 2 12 10 15 18 3 12 2 12 -7 -1 -8
-12 -11 -11 -16 5 -4 11 -11 29 -16 40 -9 20 -9 20 -5 0z"/>
<path d="M2126 67 c3 -10 9 -15 12 -12 3 3 0 11 -7 18 -10 9 -11 8 -5 -6z"/>
<path d="M2246 65 c4 -8 10 -15 15 -15 4 0 6 7 3 15 -4 8 -10 15 -15 15 -4 0
-6 -7 -3 -15z"/>
<path d="M1827 61 c6 -7 9 -19 7 -26 -3 -7 4 -15 15 -18 18 -4 21 -1 20 21 -1
17 -3 21 -6 10 -2 -10 -9 -18 -14 -18 -6 0 -8 4 -5 9 3 5 -2 15 -12 22 -14 11
-15 11 -5 0z"/>
<path d="M938 32 c-2 -17 0 -29 7 -29 7 0 11 11 9 25 -4 35 -11 37 -16 4z"/>
<path d="M1341 44 c0 -11 3 -14 6 -6 3 7 2 16 -1 19 -3 4 -6 -2 -5 -13z"/>
<path d="M1450 45 c-10 -12 -10 -18 0 -30 14 -17 20 -18 39 -6 10 7 11 13 2
30 -14 25 -24 26 -41 6z m17 -10 c0 -8 -4 -15 -9 -15 -10 0 -11 14 -1 23 9 10
10 9 10 -8z"/>
<path d="M1921 38 c-1 -28 21 -39 34 -18 3 6 -1 10 -9 10 -8 0 -17 8 -19 18
-3 10 -5 6 -6 -10z"/>
<path d="M2430 50 c0 -5 5 -10 11 -10 5 0 7 5 4 10 -3 6 -8 10 -11 10 -2 0 -4
-4 -4 -10z"/>
<path d="M1162 30 c0 -14 2 -19 5 -12 2 6 2 18 0 25 -3 6 -5 1 -5 -13z"/>
<path d="M1518 43 c7 -3 16 -2 19 1 4 3 -2 6 -13 5 -11 0 -14 -3 -6 -6z"/>
<path d="M1756 35 c-3 -8 -1 -15 4 -15 6 0 10 7 10 15 0 8 -2 15 -4 15 -2 0
-6 -7 -10 -15z"/>
<path d="M2530 42 c0 -16 28 -47 36 -39 4 4 -2 16 -14 27 -12 12 -22 17 -22
12z"/>
<path d="M466 31 c-4 -5 14 -12 41 -16 27 -3 62 -8 78 -11 29 -4 29 -3 -5 10
-52 20 -108 28 -114 17z"/>
<path d="M395 19 c-11 -17 1 -21 15 -4 8 9 8 15 2 15 -6 0 -14 -5 -17 -11z"/>
<path d="M1186 17 c3 -10 9 -15 12 -12 3 3 0 11 -7 18 -10 9 -11 8 -5 -6z"/>
<path d="M1046 8 c3 -5 21 -8 41 -8 20 0 34 3 30 6 -9 9 -76 10 -71 2z"/>
<path d="M2358 3 c6 -2 18 -2 25 0 6 3 1 5 -13 5 -14 0 -19 -2 -12 -5z"/>
</g>
</svg>
